<svg width="278.185px" height="196.721px">
<path d="M278.185 0.476598 L278.185 0.476598 " stroke="black" stroke-width="1" fill="none" />

<path d="M-0.211654 196.373 L-0.215433 0.48 L-0.00755906 0.0839055 L277.705 0 L278.101 0.20863 L278.185 196.32 L277.977 196.717 L0.264567 196.8 L-0.071811 196.664 L-0.211654 196.373 Z " stroke="black" stroke-width="1" fill="none" />

<path d="M278.177 196.411 L278.177 196.411 " stroke="black" stroke-width="1" fill="none" />

<path d="M278.151 196.501 L278.151 196.501 " stroke="black" stroke-width="1" fill="none" />

<path d="M278.105 196.585 L278.105 196.585 " stroke="black" stroke-width="1" fill="none" />

<path d="M278.045 196.656 L278.045 196.656 " stroke="black" stroke-width="1" fill="none" />

<path d="M277.973 196.717 L277.973 196.717 " stroke="black" stroke-width="1" fill="none" />

<path d="M277.894 196.762 L277.894 196.762 " stroke="black" stroke-width="1" fill="none" />

<path d="M277.803 196.789 L277.803 196.789 " stroke="black" stroke-width="1" fill="none" />

<path d="M277.708 196.8 L277.708 196.8 " stroke="black" stroke-width="1" fill="none" />

<path d="M245.545 175.676 L246.512 175.147 L246.932 174.728 L247.461 173.76 L249.101 173.76 L249.328 174.172 L248.825 175.34 L248.247 176.118 L246.697 177.267 L245.945 177.536 L245.545 177.317 L245.545 175.676 Z " stroke="black" stroke-width="1" fill="none" />

<path d="M246.474 168.253 L247.529 168.831 L248.247 169.482 L248.825 170.26 L249.328 171.428 L249.101 171.84 L247.461 171.84 L246.932 170.872 L246.474 170.426 L246.474 168.253 Z " stroke="black" stroke-width="1" fill="none" />

<path d="M246.474 81.854 L247.903 82.738 L248.553 83.4554 L249.32 85.0397 L249.101 85.44 L247.461 85.44 L246.932 84.4724 L246.474 84.0261 L246.474 81.854 Z " stroke="black" stroke-width="1" fill="none" />

<path d="M249.101 87.36 L249.32 87.7603 L249.135 88.278 L248.217 87.36 L249.101 87.36 Z " stroke="black" stroke-width="1" fill="none" />

<path d="M153.165 115.2 L153.43 116.544 L154.193 117.684 L155.331 118.445 L156.506 118.696 L161.889 118.645 L163.155 118.121 L164.16 117.09 L200.965 117.09 L201.97 118.121 L202.575 118.445 L203.751 118.696 L209.133 118.645 L210.399 118.121 L211.404 117.09 L242.211 117.09 L243.152 117.88 L244.286 118.224 L244.883 118.224 L246.017 117.88 L246.512 117.549 L247.264 116.632 L247.608 115.498 L247.491 114.318 L246.932 113.272 L246.017 112.52 L244.883 112.176 L244.286 112.176 L243.152 112.52 L242.211 113.31 L211.404 113.31 L210.399 112.279 L209.794 111.955 L208.619 111.704 L203.237 111.755 L201.97 112.279 L200.965 113.31 L164.16 113.31 L163.688 112.716 L162.55 111.955 L161.889 111.755 L160.074 111.704 L160.048 95.6296 L159.764 94.9451 L159.239 94.4213 L158.185 94.1012 L62.1846 94.1012 L61.4589 94.2455 L60.8428 94.6571 L51.8022 103.71 L29.1364 103.71 L28.8076 102.915 L28.1877 101.986 L27.3978 101.196 L26.4718 100.576 L25.44 100.148 L24.3439 99.9307 L23.2252 99.9307 L22.1291 100.148 L21.0973 100.576 L20.1713 101.196 L19.3814 101.986 L18.7616 102.915 L18.3345 103.946 L18.1153 105.042 L18.1153 106.158 L18.3345 107.254 L18.7616 108.285 L19.3814 109.214 L20.1713 110.004 L21.0973 110.624 L22.1291 111.052 L23.2252 111.269 L24.3439 111.269 L25.44 111.052 L26.4718 110.624 L27.3978 110.004 L28.1877 109.214 L28.8076 108.285 L29.1364 107.49 L52.5846 107.499 L53.3102 107.354 L53.9263 106.943 L62.9669 97.8898 L156.295 97.8898 L156.295 111.725 L155.331 111.955 L154.193 112.716 L153.43 113.856 L153.165 115.2 Z " stroke="black" stroke-width="1" fill="none" />

<path d="M245.545 90.0325 L246.463 90.9513 L245.957 91.1429 L245.545 90.9158 L245.545 90.0325 Z " stroke="black" stroke-width="1" fill="none" />

<circle cx="244.585" cy="172.8" r="0.755904" stroke="black" stroke-width="1" fill="none" />


<circle cx="244.585" cy="86.4" r="0.755904" stroke="black" stroke-width="1" fill="none" />


<circle cx="244.585" cy="115.2" r="0.755904" stroke="black" stroke-width="1" fill="none" />


<path d="M240.068 87.36 L241.708 87.36 L242.237 88.3276 L242.657 88.7486 L243.625 89.2751 L243.625 90.9158 L243.213 91.1429 L242.933 91.0579 L242.045 90.6391 L241.266 90.062 L240.117 88.5139 L239.849 87.7603 L240.068 87.36 Z " stroke="black" stroke-width="1" fill="none" />

<path d="M239.928 174.452 L240.344 175.34 L240.922 176.118 L241.64 176.769 L243.224 177.536 L243.625 177.317 L243.625 175.676 L242.657 175.147 L242.237 174.728 L241.708 173.76 L240.068 173.76 L239.841 174.172 L239.928 174.452 Z " stroke="black" stroke-width="1" fill="none" />

<path d="M239.928 171.148 L240.344 170.26 L240.922 169.482 L241.64 168.831 L242.695 168.253 L242.695 170.426 L242.237 170.872 L241.708 171.84 L240.068 171.84 L239.841 171.428 L239.928 171.148 Z " stroke="black" stroke-width="1" fill="none" />

<path d="M240.068 85.44 L241.708 85.44 L242.237 84.4724 L242.695 84.0261 L242.695 81.854 L241.266 82.738 L240.616 83.4554 L239.849 85.0397 L240.068 85.44 Z " stroke="black" stroke-width="1" fill="none" />

<path d="M241.508 119.09 L241.508 119.09 " stroke="black" stroke-width="1" fill="none" />

<path d="M241.243 111.39 L241.243 111.39 " stroke="black" stroke-width="1" fill="none" />

<path d="M18.3345 126.454 L18.1153 125.358 L18.1153 124.242 L18.3345 123.146 L18.7616 122.115 L19.3814 121.186 L20.1713 120.396 L21.0973 119.776 L22.1291 119.348 L23.2252 119.131 L24.3439 119.131 L25.44 119.348 L26.2337 119.678 L32.0428 113.857 L33.0142 113.337 L76.9209 113.31 L77.9263 112.279 L78.531 111.955 L79.7065 111.704 L85.0885 111.755 L86.3546 112.279 L87.36 113.31 L124.165 113.31 L125.17 112.279 L126.437 111.755 L132.333 111.755 L133.599 112.279 L134.57 113.248 L135.095 114.515 L135.16 115.2 L135.095 115.885 L134.57 117.152 L133.599 118.121 L132.333 118.645 L126.437 118.645 L125.17 118.121 L124.165 117.09 L112.074 117.09 L112.074 170.91 L213.411 170.91 L214.352 170.12 L215.486 169.776 L216.083 169.776 L217.217 170.12 L217.712 170.453 L218.464 171.368 L218.808 172.501 L218.691 173.681 L218.464 174.232 L217.712 175.147 L217.217 175.48 L216.083 175.824 L215.486 175.824 L214.352 175.48 L213.411 174.69 L110.185 174.697 L109.459 174.554 L108.605 173.854 L108.287 172.8 L108.295 117.09 L87.36 117.09 L86.3546 118.121 L85.7499 118.445 L84.5745 118.696 L79.1924 118.645 L77.9263 118.121 L76.9209 117.09 L34.1669 117.09 L28.9058 122.35 L29.4539 124.242 L29.4539 125.358 L29.2346 126.454 L28.8076 127.485 L28.1877 128.414 L27.3978 129.204 L26.4718 129.824 L25.44 130.252 L24.3439 130.469 L23.2252 130.469 L22.1291 130.252 L21.0973 129.824 L20.1713 129.204 L19.3814 128.414 L18.7616 127.485 L18.3345 126.454 Z " stroke="black" stroke-width="1" fill="none" />

<circle cx="215.785" cy="172.8" r="0.755903" stroke="black" stroke-width="1" fill="none" />


<path d="M212.708 176.689 L212.708 176.689 " stroke="black" stroke-width="1" fill="none" />

<path d="M212.621 176.644 L212.621 176.644 " stroke="black" stroke-width="1" fill="none" />

<path d="M212.534 176.617 L212.534 176.617 " stroke="black" stroke-width="1" fill="none" />

<path d="M212.443 168.99 L212.443 168.99 " stroke="black" stroke-width="1" fill="none" />

<path d="M123.674 133.412 L124.199 132.146 L124.637 131.614 L125.775 130.852 L126.951 130.602 L132.333 130.652 L133.599 131.177 L134.604 132.208 L153.721 132.208 L154.726 131.177 L155.331 130.852 L156.506 130.602 L161.889 130.652 L163.155 131.177 L164.16 132.208 L200.965 132.208 L201.97 131.177 L203.237 130.652 L208.619 130.602 L209.794 130.852 L210.932 131.614 L211.695 132.753 L211.96 134.098 L211.695 135.442 L210.932 136.582 L209.794 137.343 L208.619 137.594 L203.237 137.543 L201.97 137.018 L200.965 135.987 L164.16 135.987 L163.155 137.018 L162.55 137.343 L161.374 137.594 L155.992 137.543 L154.726 137.018 L153.721 135.987 L134.604 135.987 L133.599 137.018 L132.333 137.543 L126.951 137.594 L125.775 137.343 L125.17 137.018 L124.199 136.049 L123.674 134.783 L123.674 133.412 Z " stroke="black" stroke-width="1" fill="none" />

<path d="M112.074 38.493 L112.074 74.9102 L124.006 74.9102 L124.637 74.0137 L125.17 73.5768 L125.775 73.2522 L126.951 73.0016 L132.333 73.0522 L133.599 73.5768 L134.604 74.6079 L153.721 74.6079 L154.726 73.5768 L155.331 73.2522 L156.506 73.0016 L161.889 73.0522 L163.155 73.5768 L164.16 74.6079 L200.965 74.6079 L201.97 73.5768 L203.237 73.0522 L208.619 73.0016 L209.794 73.2522 L210.399 73.5768 L211.37 74.5459 L211.895 75.8124 L211.895 77.1829 L211.695 77.842 L211.37 78.4494 L210.399 79.4185 L209.794 79.7431 L208.619 79.9937 L203.237 79.9431 L201.97 79.4185 L200.965 78.3874 L164.16 78.3874 L163.155 79.4185 L162.55 79.7431 L161.374 79.9937 L155.992 79.9431 L154.726 79.4185 L153.721 78.3874 L134.604 78.3874 L133.599 79.4185 L132.994 79.7431 L131.819 79.9937 L126.437 79.9431 L125.17 79.4185 L124.396 78.6898 L87.1294 78.6898 L86.3546 79.4185 L85.7499 79.7431 L84.5745 79.9937 L79.7065 79.9937 L78.531 79.7431 L77.9263 79.4185 L76.955 78.4494 L76.6299 77.842 L76.4296 77.1829 L76.4296 75.8124 L76.955 74.5459 L77.3934 74.0137 L78.531 73.2522 L79.1924 73.0522 L85.0885 73.0522 L86.3546 73.5768 L86.8876 74.0137 L87.5187 74.9102 L108.295 74.9102 L108.295 40.2898 L55.869 40.2898 L54.9921 41.3359 L54.3761 41.7494 L52.955 42.1795 L51.4809 42.0344 L50.7931 41.7494 L50.177 41.3359 L49.3002 40.2898 L34.1669 40.2898 L29.4539 45.0032 L29.4539 53.6693 L18.1153 53.6693 L18.1153 42.3307 L26.7817 42.3307 L32.0428 37.0571 L33.0142 36.5374 L49.3002 36.5102 L50.177 35.4641 L50.7931 35.0506 L51.4809 34.7656 L52.955 34.6205 L54.3761 35.0506 L54.9921 35.4641 L55.869 36.5102 L110.185 36.5012 L110.91 36.6455 L111.526 37.0571 L111.938 37.6732 L112.074 38.493 Z " stroke="black" stroke-width="1" fill="none" />

<path d="M153.23 56.9148 L153.23 58.2852 L153.755 59.5517 L154.726 60.5208 L155.331 60.8455 L156.506 61.0961 L161.889 61.0454 L163.155 60.5208 L164.16 59.4898 L200.965 59.4898 L201.97 60.5208 L203.237 61.0454 L208.619 61.0961 L209.794 60.8455 L210.399 60.5208 L211.37 59.5517 L211.695 58.9444 L211.96 57.6 L211.695 56.2556 L211.37 55.6483 L210.399 54.6792 L209.133 54.1546 L208.074 54.1039 L208.074 21.5739 L208.864 20.6321 L209.208 19.4978 L209.091 18.3179 L208.532 17.2724 L207.617 16.5203 L207.065 16.2924 L206.483 16.1764 L205.304 16.2924 L204.752 16.5203 L203.837 17.2724 L203.505 17.7679 L203.161 18.9022 L203.161 19.4978 L203.505 20.6321 L204.295 21.5739 L204.295 54.1039 L203.237 54.1546 L202.575 54.3545 L201.437 55.1161 L200.965 55.7102 L164.16 55.7102 L163.688 55.1161 L162.55 54.3545 L161.889 54.1546 L160.074 54.1039 L160.074 32.0829 L161.121 31.2094 L161.533 30.5904 L161.82 29.9025 L161.964 28.4277 L161.533 27.0096 L160.592 25.8641 L159.288 25.1656 L157.814 25.0205 L156.393 25.4506 L155.248 26.3906 L154.549 27.6975 L154.405 28.4277 L154.549 29.9025 L154.836 30.5904 L155.248 31.2094 L156.295 32.0829 L156.295 54.1247 L155.331 54.3545 L154.193 55.1161 L153.755 55.6483 L153.23 56.9148 Z " stroke="black" stroke-width="1" fill="none" />

<path d="M210.074 22.2765 L210.074 22.2765 " stroke="black" stroke-width="1" fill="none" />

<circle cx="206.185" cy="76.4976" r="0.944881" stroke="black" stroke-width="1" fill="none" />


<circle cx="206.185" cy="57.6" r="0.944881" stroke="black" stroke-width="1" fill="none" />


<circle cx="206.185" cy="115.2" r="0.944881" stroke="black" stroke-width="1" fill="none" />


<circle cx="206.185" cy="134.098" r="0.944881" stroke="black" stroke-width="1" fill="none" />


<circle cx="206.185" cy="19.2" r="0.755903" stroke="black" stroke-width="1" fill="none" />


<path d="M202.375 22.5411 L202.375 22.5411 " stroke="black" stroke-width="1" fill="none" />

<path d="M201.388 20.4257 L201.388 20.4257 " stroke="black" stroke-width="1" fill="none" />

<path d="M181.901 18.24 L182.128 17.8269 L181.935 17.3212 L181.017 18.24 L181.901 18.24 Z " stroke="black" stroke-width="1" fill="none" />

<path d="M178.345 22.0751 L179.312 21.5486 L179.732 21.1276 L180.261 20.16 L181.901 20.16 L182.128 20.5731 L181.625 21.7391 L181.047 22.5173 L180.329 23.1681 L179.497 23.6663 L178.745 23.9361 L178.345 23.7177 L178.345 22.0751 Z " stroke="black" stroke-width="1" fill="none" />

<path d="M178.345 15.5675 L179.263 14.6494 L178.745 14.4639 L178.345 14.6823 L178.345 15.5675 Z " stroke="black" stroke-width="1" fill="none" />

<circle cx="177.385" cy="19.2" r="0.755903" stroke="black" stroke-width="1" fill="none" />


<path d="M172.728 20.8528 L172.641 20.5731 L172.868 20.16 L174.508 20.16 L175.037 21.1276 L175.457 21.5486 L176.425 22.0751 L176.425 23.7177 L176.024 23.9361 L174.44 23.1681 L173.722 22.5173 L173.144 21.7391 L172.728 20.8528 Z " stroke="black" stroke-width="1" fill="none" />

<path d="M176.024 14.4639 L176.425 14.6823 L176.425 15.5675 L175.506 14.6494 L176.024 14.4639 Z " stroke="black" stroke-width="1" fill="none" />

<path d="M172.641 17.8269 L172.868 18.24 L173.752 18.24 L172.834 17.3212 L172.641 17.8269 Z " stroke="black" stroke-width="1" fill="none" />

<path d="M162.134 32.911 L162.134 32.911 " stroke="black" stroke-width="1" fill="none" />

<circle cx="158.94" cy="134.098" r="0.944881" stroke="black" stroke-width="1" fill="none" />


<circle cx="158.94" cy="115.2" r="0.944881" stroke="black" stroke-width="1" fill="none" />


<circle cx="158.94" cy="76.4976" r="0.944881" stroke="black" stroke-width="1" fill="none" />


<circle cx="158.94" cy="57.6" r="0.944881" stroke="black" stroke-width="1" fill="none" />


<circle cx="158.185" cy="28.8" r="0.755903" stroke="black" stroke-width="1" fill="none" />


<path d="M154.375 100.286 L154.375 100.286 " stroke="black" stroke-width="1" fill="none" />

<path d="M154.375 33.2477 L154.375 33.2477 " stroke="black" stroke-width="1" fill="none" />

<path d="M123.674 56.9148 L123.674 58.2852 L124.199 59.5517 L125.17 60.5208 L126.437 61.0454 L131.819 61.0961 L132.994 60.8455 L134.132 60.0839 L134.57 59.5517 L135.095 58.2852 L135.095 56.9148 L134.895 56.2556 L134.132 55.1161 L132.994 54.3545 L132.333 54.1546 L131.274 54.1039 L131.274 21.5739 L132.064 20.6321 L132.408 19.4978 L132.408 18.9022 L132.064 17.7679 L131.312 16.8514 L130.817 16.5203 L129.683 16.1764 L128.504 16.2924 L127.457 16.8514 L126.705 17.7679 L126.361 18.9022 L126.361 19.4978 L126.705 20.6321 L127.495 21.5739 L127.495 54.1039 L126.437 54.1546 L125.17 54.6792 L124.199 55.6483 L123.674 56.9148 Z " stroke="black" stroke-width="1" fill="none" />

<path d="M133.274 22.2765 L133.274 22.2765 " stroke="black" stroke-width="1" fill="none" />

<circle cx="129.385" cy="57.6" r="0.944881" stroke="black" stroke-width="1" fill="none" />


<circle cx="129.385" cy="76.4976" r="0.944881" stroke="black" stroke-width="1" fill="none" />


<circle cx="129.385" cy="115.2" r="0.944881" stroke="black" stroke-width="1" fill="none" />


<circle cx="129.385" cy="134.098" r="0.944881" stroke="black" stroke-width="1" fill="none" />


<circle cx="129.385" cy="19.2" r="0.755903" stroke="black" stroke-width="1" fill="none" />


<path d="M125.575 22.5411 L125.575 22.5411 " stroke="black" stroke-width="1" fill="none" />

<path d="M39.205 29.1723 L39.3487 29.9025 L40.0479 31.2094 L41.1931 32.1494 L42.6142 32.5795 L44.0882 32.4344 L44.7761 32.1494 L45.3921 31.7359 L46.269 30.6898 L116.5 30.6898 L117.377 31.7359 L117.993 32.1494 L118.681 32.4344 L120.155 32.5795 L121.576 32.1494 L122.721 31.2094 L123.42 29.9025 L123.564 28.4277 L123.42 27.6975 L122.721 26.3906 L121.576 25.4506 L120.155 25.0205 L118.681 25.1656 L117.993 25.4506 L117.377 25.8641 L116.5 26.9102 L46.269 26.9102 L45.3921 25.8641 L44.7761 25.4506 L44.0882 25.1656 L42.6142 25.0205 L41.1931 25.4506 L40.0479 26.3906 L39.3487 27.6975 L39.205 29.1723 Z " stroke="black" stroke-width="1" fill="none" />

<circle cx="119.785" cy="28.8" r="0.755903" stroke="black" stroke-width="1" fill="none" />


<path d="M115.672 32.7492 L115.672 32.7492 " stroke="black" stroke-width="1" fill="none" />

<path d="M115.427 32.6188 L115.427 32.6188 " stroke="black" stroke-width="1" fill="none" />

<path d="M115.336 24.9902 L115.336 24.9902 " stroke="black" stroke-width="1" fill="none" />

<path d="M114.471 119.01 L114.471 119.01 " stroke="black" stroke-width="1" fill="none" />

<path d="M114.384 168.983 L114.384 168.983 " stroke="black" stroke-width="1" fill="none" />

<path d="M114.293 168.956 L114.293 168.956 " stroke="black" stroke-width="1" fill="none" />

<path d="M114.21 168.911 L114.21 168.911 " stroke="black" stroke-width="1" fill="none" />

<path d="M114.138 168.85 L114.138 168.85 " stroke="black" stroke-width="1" fill="none" />

<path d="M114.077 168.779 L114.077 168.779 " stroke="black" stroke-width="1" fill="none" />

<path d="M114.032 168.699 L114.032 168.699 " stroke="black" stroke-width="1" fill="none" />

<path d="M114.006 168.609 L114.006 168.609 " stroke="black" stroke-width="1" fill="none" />

<path d="M113.994 168.514 L113.994 168.514 " stroke="black" stroke-width="1" fill="none" />

<path d="M110.022 176.614 L110.022 176.614 " stroke="black" stroke-width="1" fill="none" />

<path d="M106.363 42.5934 L106.363 42.5934 " stroke="black" stroke-width="1" fill="none" />

<path d="M106.375 119.486 L106.375 119.486 " stroke="black" stroke-width="1" fill="none" />

<path d="M105.101 18.24 L105.328 17.8269 L105.135 17.3212 L104.217 18.24 L105.101 18.24 Z " stroke="black" stroke-width="1" fill="none" />

<path d="M101.545 15.5675 L102.463 14.6494 L101.945 14.4639 L101.545 14.6823 L101.545 15.5675 Z " stroke="black" stroke-width="1" fill="none" />

<circle cx="100.585" cy="19.2" r="0.755903" stroke="black" stroke-width="1" fill="none" />


<path d="M96.0378 17.3102 L98.211 17.3102 L98.657 16.8514 L99.6246 16.3249 L99.6246 14.6823 L99.2239 14.4639 L97.6403 15.2319 L96.9222 15.8827 L96.0378 17.3102 Z " stroke="black" stroke-width="1" fill="none" />

<path d="M48.805 134.772 L49.2359 136.19 L50.177 137.336 L51.4809 138.036 L52.955 138.18 L53.6882 138.036 L54.9921 137.336 L55.5213 136.809 L56.0164 135.987 L76.9209 135.987 L77.9263 137.018 L79.1924 137.543 L85.0885 137.543 L86.3546 137.018 L87.326 136.049 L87.8513 134.783 L87.9156 134.098 L87.651 132.753 L86.8876 131.614 L85.7499 130.852 L84.5745 130.602 L79.1924 130.652 L77.9263 131.177 L76.9209 132.208 L55.6649 132.208 L54.9921 131.464 L54.3761 131.051 L53.6882 130.766 L52.2142 130.62 L50.7931 131.051 L49.6479 131.991 L48.9487 133.298 L48.805 134.772 Z " stroke="black" stroke-width="1" fill="none" />

<path d="M18.1153 85.8418 L18.1153 86.9582 L18.3345 88.0535 L18.7616 89.0854 L19.3814 90.014 L20.1713 90.8035 L21.0973 91.4241 L22.1291 91.8516 L23.2252 92.0693 L24.3439 92.0693 L25.44 91.8516 L26.4718 91.4241 L27.3978 90.8035 L28.1877 90.014 L28.8076 89.0854 L29.1364 88.2898 L62.1846 88.2988 L62.9102 88.1545 L63.7644 87.4549 L64.0819 86.4 L64.0743 59.4898 L76.9209 59.4898 L77.9263 60.5208 L79.1924 61.0454 L85.0885 61.0454 L85.7499 60.8455 L86.8876 60.0839 L87.651 58.9444 L87.9156 57.6 L87.651 56.2556 L86.8876 55.1161 L85.7499 54.3545 L85.0885 54.1546 L79.7065 54.1039 L78.531 54.3545 L77.9263 54.6792 L76.9209 55.7102 L62.1846 55.7012 L61.4589 55.8455 L60.8428 56.2571 L60.4309 56.8732 L60.2872 57.6 L60.2948 84.5102 L29.1364 84.5102 L28.8076 83.7146 L28.1877 82.786 L27.3978 81.9965 L26.4718 81.3759 L25.44 80.9484 L24.3439 80.7307 L23.2252 80.7307 L22.1291 80.9484 L21.0973 81.3759 L20.1713 81.9965 L19.3814 82.786 L18.7616 83.7146 L18.3345 84.7465 L18.1153 85.8418 Z " stroke="black" stroke-width="1" fill="none" />

<circle cx="82.1404" cy="134.098" r="0.944881" stroke="black" stroke-width="1" fill="none" />


<circle cx="82.1404" cy="57.6" r="0.944881" stroke="black" stroke-width="1" fill="none" />


<circle cx="82.1404" cy="76.4976" r="0.944881" stroke="black" stroke-width="1" fill="none" />


<circle cx="82.1404" cy="115.2" r="0.944881" stroke="black" stroke-width="1" fill="none" />


<path d="M66.4706 61.4098 L66.4706 61.4098 " stroke="black" stroke-width="1" fill="none" />

<path d="M65.3858 88.4939 L65.3858 88.4939 " stroke="black" stroke-width="1" fill="none" />

<path d="M63.9609 99.8098 L63.9609 99.8098 " stroke="black" stroke-width="1" fill="none" />

<path d="M62.022 92.188 L62.022 92.188 " stroke="black" stroke-width="1" fill="none" />

<path d="M62.022 53.788 L62.022 53.788 " stroke="black" stroke-width="1" fill="none" />

<path d="M57.8986 82.5902 L57.8986 82.5902 " stroke="black" stroke-width="1" fill="none" />

<path d="M57.3354 137.907 L57.3354 137.907 " stroke="black" stroke-width="1" fill="none" />

<path d="M57.0331 42.2098 L57.0331 42.2098 " stroke="black" stroke-width="1" fill="none" />

<path d="M56.9424 34.5812 L56.9424 34.5812 " stroke="black" stroke-width="1" fill="none" />

<path d="M56.6967 34.4508 L56.6967 34.4508 " stroke="black" stroke-width="1" fill="none" />

<path d="M56.64 130.279 L56.64 130.279 " stroke="black" stroke-width="1" fill="none" />

<path d="M56.3943 130.148 L56.3943 130.148 " stroke="black" stroke-width="1" fill="none" />

<path d="M55.7556 32.6098 L55.7556 32.6098 " stroke="black" stroke-width="1" fill="none" />

<path d="M55.6611 32.6203 L55.6611 32.6203 " stroke="black" stroke-width="1" fill="none" />

<circle cx="52.5845" cy="134.4" r="0.755903" stroke="black" stroke-width="1" fill="none" />


<circle cx="52.5845" cy="38.4" r="0.755903" stroke="black" stroke-width="1" fill="none" />


<path d="M52.7471 109.412 L52.7471 109.412 " stroke="black" stroke-width="1" fill="none" />

<path d="M52.6791 107.49 L52.6791 107.49 " stroke="black" stroke-width="1" fill="none" />

<path d="M50.8082 101.79 L50.8082 101.79 " stroke="black" stroke-width="1" fill="none" />

<path d="M48.4724 42.3492 L48.4724 42.3492 " stroke="black" stroke-width="1" fill="none" />

<path d="M48.2268 42.2188 L48.2268 42.2188 " stroke="black" stroke-width="1" fill="none" />

<path d="M18.1153 66.6418 L18.1153 67.7582 L18.3345 68.8535 L18.7616 69.8854 L19.3814 70.814 L20.1713 71.6035 L21.0973 72.2241 L22.1291 72.6516 L23.2252 72.8693 L24.3439 72.8693 L25.44 72.6516 L26.4718 72.2241 L27.3978 71.6035 L28.1877 70.814 L28.8076 69.8854 L29.1364 69.0898 L33.3846 69.0988 L34.4391 68.7787 L34.9644 68.2549 L35.2819 67.2 L35.2743 58.3827 L41.9981 51.6574 L43.355 51.7795 L44.0882 51.6344 L44.7761 51.3494 L45.9213 50.4094 L46.6205 49.1025 L46.7641 48.3723 L46.6205 46.8975 L45.9213 45.5906 L44.7761 44.6506 L43.355 44.2205 L41.8809 44.3656 L40.577 45.0641 L40.0479 45.5906 L39.3487 46.8975 L39.205 47.6277 L39.326 48.9849 L31.8047 56.5451 L31.4872 57.6 L31.4948 65.3102 L29.1364 65.3102 L28.8076 64.5146 L28.1877 63.586 L27.3978 62.7965 L26.4718 62.1759 L25.44 61.7484 L24.3439 61.5307 L23.2252 61.5307 L22.1291 61.7484 L21.0973 62.1759 L20.1713 62.7965 L19.3814 63.586 L18.7616 64.5146 L18.3345 65.5465 L18.1153 66.6418 Z " stroke="black" stroke-width="1" fill="none" />

<path d="M46.1556 42.2098 L46.1556 42.2098 " stroke="black" stroke-width="1" fill="none" />

<path d="M46.0611 42.2203 L46.0611 42.2203 " stroke="black" stroke-width="1" fill="none" />

<circle cx="42.9845" cy="48" r="0.755903" stroke="black" stroke-width="1" fill="none" />


<circle cx="42.9845" cy="28.8" r="0.755903" stroke="black" stroke-width="1" fill="none" />


<path d="M42.8712 53.6995 L42.8712 53.6995 " stroke="black" stroke-width="1" fill="none" />

<path d="M37.3342 59.0385 L37.3342 59.0385 " stroke="black" stroke-width="1" fill="none" />

<path d="M35.1609 119.01 L35.1609 119.01 " stroke="black" stroke-width="1" fill="none" />

<path d="M33.222 111.388 L33.222 111.388 " stroke="black" stroke-width="1" fill="none" />

<path d="M28.8076 146.687 L28.4145 147.273 L29.5181 148.377 L30.2627 148.006 L30.7691 147.061 L31.234 145.637 L31.4079 144.151 L31.2907 142.662 L30.8863 141.222 L30.2589 139.99 L29.5181 139.623 L28.4145 140.727 L29.2346 142.345 L29.4539 143.441 L29.4539 144.559 L29.2346 145.655 L28.8076 146.687 Z " stroke="black" stroke-width="1" fill="none" />

<path d="M31.3134 122.66 L31.3134 122.66 " stroke="black" stroke-width="1" fill="none" />

<path d="M30.6217 109.41 L30.6217 109.41 " stroke="black" stroke-width="1" fill="none" />

<path d="M30.6217 90.2098 L30.6217 90.2098 " stroke="black" stroke-width="1" fill="none" />

<path d="M30.6217 71.0098 L30.6217 71.0098 " stroke="black" stroke-width="1" fill="none" />

<path d="M30.531 101.781 L30.531 101.781 " stroke="black" stroke-width="1" fill="none" />

<path d="M30.2249 101.579 L30.2249 101.579 " stroke="black" stroke-width="1" fill="none" />

<path d="M19.7783 150.478 L20.7231 150.985 L22.148 151.449 L23.6334 151.623 L25.1225 151.506 L26.5625 151.102 L27.7946 150.474 L28.1613 149.734 L27.0576 148.63 L25.44 149.45 L24.3439 149.669 L23.2252 149.669 L22.1291 149.45 L20.5115 148.63 L19.4079 149.734 L19.7783 150.478 Z " stroke="black" stroke-width="1" fill="none" />

<path d="M21.0066 136.898 L22.4466 136.492 L23.9357 136.376 L25.4211 136.552 L26.846 137.016 L27.7909 137.52 L28.1613 138.266 L27.0576 139.37 L25.44 138.55 L24.3439 138.331 L23.2252 138.331 L22.1291 138.55 L21.3354 138.879 L19.9106 137.455 L21.0066 136.898 Z " stroke="black" stroke-width="1" fill="none" />

<path d="M25.8973 40.3888 L25.8973 40.3888 " stroke="black" stroke-width="1" fill="none" />

<path d="M25.7991 40.399 L25.7991 40.399 " stroke="black" stroke-width="1" fill="none" />

<path d="M25.6857 117.401 L25.6857 117.401 " stroke="black" stroke-width="1" fill="none" />

<path d="M25.4967 117.402 L25.4967 117.402 " stroke="black" stroke-width="1" fill="none" />

<circle cx="23.7845" cy="48" r="0.755903" stroke="black" stroke-width="1" fill="none" />


<circle cx="23.7845" cy="67.2" r="0.755903" stroke="black" stroke-width="1" fill="none" />


<circle cx="23.7845" cy="86.4" r="0.755903" stroke="black" stroke-width="1" fill="none" />


<circle cx="23.7845" cy="105.6" r="0.755903" stroke="black" stroke-width="1" fill="none" />


<circle cx="23.7845" cy="124.8" r="0.755903" stroke="black" stroke-width="1" fill="none" />


<circle cx="23.7845" cy="144" r="0.755903" stroke="black" stroke-width="1" fill="none" />


<path d="M18.1153 143.441 L18.1153 144.559 L18.3345 145.655 L19.1546 147.273 L18.051 148.377 L17.3102 148.01 L16.6828 146.778 L16.2784 145.338 L16.1613 143.849 L16.3351 142.363 L16.8 140.939 L17.2346 140.122 L18.6633 141.551 L18.3345 142.345 L18.1153 143.441 Z " stroke="black" stroke-width="1" fill="none" />

<path d="M0.260787 0 L0.260787 0 " stroke="black" stroke-width="1" fill="none" />

<path d="M0.173858 196.792 L0.173858 196.792 " stroke="black" stroke-width="1" fill="none" />

<path d="M0.0831496 196.766 L0.0831496 196.766 " stroke="black" stroke-width="1" fill="none" />

<path d="M0 196.721 L0 196.721 " stroke="black" stroke-width="1" fill="none" />

<path d="M-0.071811 196.66 L-0.071811 196.66 " stroke="black" stroke-width="1" fill="none" />

<path d="M-0.132283 196.588 L-0.132283 196.588 " stroke="black" stroke-width="1" fill="none" />

<path d="M-0.177638 196.509 L-0.177638 196.509 " stroke="black" stroke-width="1" fill="none" />

<path d="M-0.204094 196.418 L-0.204094 196.418 " stroke="black" stroke-width="1" fill="none" />

<path d="M-0.215433 196.324 L-0.215433 196.324 " stroke="black" stroke-width="1" fill="none" />

<path d="M277.969 0.0793701 L277.969 0.0782362 " stroke="black" stroke-width="1" fill="none" />

<path d="M277.886 0.0359055 L277.886 0.0347717 " stroke="black" stroke-width="1" fill="none" />

<path d="M241.508 119.091 L241.508 119.09 " stroke="black" stroke-width="1" fill="none" />

<path d="M202.363 22.4451 L202.363 22.4425 " stroke="black" stroke-width="1" fill="none" />

<path d="M125.575 22.5411 L125.575 22.5407 " stroke="black" stroke-width="1" fill="none" />

<path d="M125.537 25.8074 L125.537 25.8066 " stroke="black" stroke-width="1" fill="none" />

<path d="M124.834 26.0266 L124.834 26.027 " stroke="black" stroke-width="1" fill="none" />

<path d="M124.698 25.8958 L124.698 25.8966 " stroke="black" stroke-width="1" fill="none" />

<path d="M114.285 119.048 L114.285 119.049 " stroke="black" stroke-width="1" fill="none" />

<path d="M114.134 119.151 L114.134 119.153 " stroke="black" stroke-width="1" fill="none" />

<path d="M114.077 168.779 L114.077 168.782 " stroke="black" stroke-width="1" fill="none" />

<path d="M114.074 119.226 L114.074 119.227 " stroke="black" stroke-width="1" fill="none" />

<path d="M114.028 119.308 L114.028 119.31 " stroke="black" stroke-width="1" fill="none" />

<path d="M106.363 42.5934 L106.363 42.5915 " stroke="black" stroke-width="1" fill="none" />

<path d="M106.076 42.246 L106.076 42.2457 " stroke="black" stroke-width="1" fill="none" />

<path d="M66.3761 61.4196 L66.3761 61.42 " stroke="black" stroke-width="1" fill="none" />

<path d="M66.1342 61.5515 L66.1342 61.553 " stroke="black" stroke-width="1" fill="none" />

<path d="M66.0283 61.7083 L66.0283 61.7099 " stroke="black" stroke-width="1" fill="none" />

<path d="M63.7757 99.8468 L63.7757 99.8479 " stroke="black" stroke-width="1" fill="none" />

<path d="M58.235 82.4485 L58.235 82.447 " stroke="black" stroke-width="1" fill="none" />

<path d="M57.1502 137.944 L57.1502 137.946 " stroke="black" stroke-width="1" fill="none" />

<path d="M56.5493 130.252 L56.5493 130.252 " stroke="black" stroke-width="1" fill="none" />

<path d="M55.6611 32.62 L55.6611 32.6203 " stroke="black" stroke-width="1" fill="none" />

<path d="M55.3587 32.826 L55.3587 32.8263 " stroke="black" stroke-width="1" fill="none" />

<path d="M55.3172 32.9087 L55.3172 32.9095 " stroke="black" stroke-width="1" fill="none" />

<path d="M55.2907 33.185 L55.2907 33.1858 " stroke="black" stroke-width="1" fill="none" />

<path d="M55.2869 32.9991 L55.2869 32.9998 " stroke="black" stroke-width="1" fill="none" />

<path d="M55.2794 33.0924 L55.2794 33.0932 " stroke="black" stroke-width="1" fill="none" />

<path d="M50.9065 101.78 L50.9065 101.78 " stroke="black" stroke-width="1" fill="none" />

<path d="M48.3969 42.2888 L48.3969 42.2872 " stroke="black" stroke-width="1" fill="none" />

<path d="M45.9704 42.2483 L45.9704 42.2487 " stroke="black" stroke-width="1" fill="none" />

<path d="M45.823 43.0299 L45.823 43.0303 " stroke="black" stroke-width="1" fill="none" />

<path d="M45.7587 42.4263 L45.7587 42.4271 " stroke="black" stroke-width="1" fill="none" />

<path d="M45.7172 42.5087 L45.7172 42.5095 " stroke="black" stroke-width="1" fill="none" />

<path d="M45.7172 42.8746 L45.7172 42.8753 " stroke="black" stroke-width="1" fill="none" />

<path d="M45.6907 42.7858 L45.6907 42.7861 " stroke="black" stroke-width="1" fill="none" />

<path d="M45.6869 42.5991 L45.6869 42.5998 " stroke="black" stroke-width="1" fill="none" />

<path d="M45.6794 42.6924 L45.6794 42.6932 " stroke="black" stroke-width="1" fill="none" />

<path d="M42.7729 53.7097 L42.7729 53.7101 " stroke="black" stroke-width="1" fill="none" />

<path d="M30.5272 109.419 L30.5272 109.42 " stroke="black" stroke-width="1" fill="none" />

<path d="M30.4365 71.0468 L30.4365 71.0479 " stroke="black" stroke-width="1" fill="none" />

<path d="M30.3609 101.711 L30.3609 101.713 " stroke="black" stroke-width="1" fill="none" />

<path d="M30.2816 90.3523 L30.2816 90.3538 " stroke="black" stroke-width="1" fill="none" />

<path d="M26.0674 40.3181 L26.0674 40.3162 " stroke="black" stroke-width="1" fill="none" />

<path d="M0.166299 0.0102047 L0.166299 0.0105827 " stroke="black" stroke-width="1" fill="none" />

<path d="M0.0755906 0.0381732 L0.0755906 0.0389291 " stroke="black" stroke-width="1" fill="none" />

<path d="M-0.00377953 0.0820157 L-0.00377953 0.0831496 " stroke="black" stroke-width="1" fill="none" />

<path d="M-0.177638 196.505 L-0.177638 196.509 " stroke="black" stroke-width="1" fill="none" />

<path d="M-0.181417 0.298583 L-0.181417 0.300094 " stroke="black" stroke-width="1" fill="none" />

</svg>
