<svg width="537.671px" height="345.548px">
<path d="M537.671 0.476598 L537.671 0.476598 " stroke="black" stroke-width="1" fill="none" />

<path d="M537.198 345.6 L537.534 345.456 L537.671 345.12 L537.671 0.473197 L537.457 0.080126 L0.543494 0 L0.150423 0.214299 L0.0710526 345.128 L0.286486 345.521 L537.198 345.6 Z " stroke="black" stroke-width="1" fill="none" />

<path d="M537.194 345.6 L537.194 345.6 " stroke="black" stroke-width="1" fill="none" />

<path d="M525.087 95.6984 L525.087 95.6984 " stroke="black" stroke-width="1" fill="none" />

<path d="M524.987 94.6949 L524.987 94.6949 " stroke="black" stroke-width="1" fill="none" />

<path d="M513.019 199.946 L512.802 201.042 L512.802 202.158 L513.019 203.254 L513.447 204.285 L514.068 205.214 L514.857 206.004 L515.786 206.624 L516.818 207.052 L517.913 207.269 L519.029 207.269 L520.125 207.052 L521.156 206.624 L522.085 206.004 L522.875 205.214 L523.495 204.285 L523.923 203.254 L524.14 202.158 L524.14 201.042 L523.923 199.946 L523.495 198.915 L522.875 197.986 L522.085 197.196 L521.306 196.676 L521.319 96 L521.103 94.91 L520.485 93.9859 L434.086 7.58589 L433.16 6.96831 L432.071 6.75175 L336.071 6.75175 L334.983 6.96831 L334.057 7.58589 L325.296 16.3654 L321.796 16.3654 L321.274 15.586 L320.484 14.7965 L319.558 14.1759 L318.526 13.7484 L317.43 13.5307 L316.312 13.5307 L315.216 13.7484 L314.184 14.1759 L313.258 14.7965 L312.468 15.586 L311.848 16.5146 L311.421 17.5465 L311.202 18.6418 L311.202 19.7582 L311.421 20.8535 L311.848 21.8854 L312.468 22.814 L313.258 23.6035 L314.184 24.2241 L315.216 24.6516 L316.312 24.8693 L317.43 24.8693 L318.526 24.6516 L319.558 24.2241 L320.484 23.6035 L321.274 22.814 L321.796 22.0346 L326.471 22.0483 L327.027 21.9934 L328.055 21.5683 L337.246 12.4346 L430.896 12.4346 L515.636 97.1743 L515.636 196.676 L514.857 197.196 L514.068 197.986 L513.447 198.915 L513.019 199.946 Z " stroke="black" stroke-width="1" fill="none" />

<path d="M521.306 95.8609 L521.306 95.8609 " stroke="black" stroke-width="1" fill="none" />

<circle cx="518.471" cy="201.6" r="0.755904" stroke="black" stroke-width="1" fill="none" />


<path d="M516.432 307.548 L516.432 307.548 " stroke="black" stroke-width="1" fill="none" />

<path d="M502.106 211.061 L502.106 184.904 L502.78 183.853 L503.051 182.586 L503.069 96 L502.996 95.2592 L502.429 93.8899 L425.158 16.5146 L423.926 15.6915 L422.471 15.4023 L354.901 15.4205 L353.816 15.6915 L352.863 16.2641 L352.115 17.0899 L351.635 18.0975 L351.473 19.2 L351.635 20.3025 L352.115 21.3101 L352.863 22.1359 L353.816 22.7085 L354.901 22.9795 L420.906 22.9795 L495.492 97.5655 L495.492 182.586 L495.763 183.853 L496.436 184.904 L496.436 210.026 L488.343 218.119 L487.814 218.935 L487.598 220.025 L487.829 222.413 L488.261 223.06 L488.688 223.375 L489.288 224.426 L505.092 240.231 L505.092 305.635 L503.639 307.087 L486.539 307.087 L485.915 306.463 L484.986 305.843 L483.955 305.416 L482.859 305.197 L481.743 305.197 L480.647 305.416 L479.616 305.843 L478.687 306.463 L477.897 307.253 L477.277 308.179 L476.849 309.211 L476.632 310.307 L476.632 311.426 L476.849 312.522 L477.277 313.553 L477.897 314.479 L478.687 315.269 L479.616 315.889 L480.647 316.316 L481.743 316.535 L482.859 316.535 L483.955 316.316 L484.986 315.889 L485.915 315.269 L486.539 314.646 L505.946 314.593 L506.658 314.374 L507.89 313.553 L511.556 309.887 L512.38 308.655 L512.596 307.941 L512.596 239.259 L512.38 238.545 L511.556 237.313 L510.324 236.493 L509.105 236.224 L493.68 220.8 L501.285 213.214 L501.903 212.29 L502.106 211.061 Z " stroke="black" stroke-width="1" fill="none" />

<path d="M511.717 194.991 L511.717 194.991 " stroke="black" stroke-width="1" fill="none" />

<path d="M506.832 95.6523 L506.832 95.6523 " stroke="black" stroke-width="1" fill="none" />

<path d="M505.553 318.429 L505.553 318.429 " stroke="black" stroke-width="1" fill="none" />

<path d="M505.39 314.646 L505.39 314.646 " stroke="black" stroke-width="1" fill="none" />

<path d="M504.163 215.666 L504.163 215.666 " stroke="black" stroke-width="1" fill="none" />

<path d="M501.374 213.106 L501.374 213.106 " stroke="black" stroke-width="1" fill="none" />

<path d="M500.835 303.307 L500.835 303.307 " stroke="black" stroke-width="1" fill="none" />

<path d="M457.363 318.255 L457.092 316.985 L457.073 288 L457.363 286.545 L458.186 285.313 L459.418 284.493 L460.871 284.202 L485.433 284.22 L486.057 283.597 L486.986 282.977 L488.018 282.55 L489.113 282.331 L490.229 282.331 L491.325 282.55 L492.356 282.977 L493.285 283.597 L494.075 284.387 L494.695 285.313 L495.123 286.345 L495.34 287.441 L495.34 288.559 L495.123 289.655 L494.695 290.687 L494.075 291.613 L493.285 292.403 L492.356 293.023 L491.325 293.45 L490.229 293.669 L489.113 293.669 L488.018 293.45 L486.986 293.023 L486.057 292.403 L485.433 291.78 L464.651 291.78 L464.651 316.985 L464.38 318.255 L463.706 319.302 L463.719 336 L463.665 336.556 L463.239 337.584 L462.454 338.37 L461.427 338.793 L424.973 338.835 L423.926 339.507 L422.656 339.78 L130.843 339.798 L129.388 339.507 L128.155 338.687 L112.115 322.537 L111.544 321.169 L111.473 320.428 L111.492 312.869 L109.602 312.869 L109.602 310.98 L99.8506 310.98 L99.8506 322.163 L100.474 322.787 L101.094 323.713 L101.521 324.745 L101.74 325.841 L101.74 326.959 L101.521 328.055 L101.094 329.087 L100.474 330.013 L99.6843 330.803 L98.7583 331.423 L97.7265 331.85 L96.6304 332.069 L95.5117 332.069 L94.4156 331.85 L93.3838 331.423 L92.4578 330.803 L91.6679 330.013 L91.0481 329.087 L90.621 328.055 L90.4018 326.959 L90.4018 325.841 L90.621 324.745 L91.0481 323.713 L91.6679 322.787 L92.2915 322.163 L92.2726 307.2 L92.3444 306.459 L92.9151 305.091 L93.9621 304.044 L95.3303 303.473 L109.602 303.42 L109.602 301.531 L120.94 301.531 L120.94 312.869 L119.051 312.869 L119.051 318.864 L132.407 332.22 L422.656 332.22 L423.926 332.493 L424.973 333.165 L458.036 333.165 L458.036 319.302 L457.363 318.255 Z " stroke="black" stroke-width="1" fill="none" />

<path d="M482.981 219.344 L482.887 221.748 L483.213 222.758 L483.763 223.308 L484.482 223.606 L485.26 223.606 L485.979 223.308 L486.529 222.758 L486.855 221.748 L486.761 207.183 L488.686 205.257 L490.043 205.38 L490.774 205.234 L492.081 204.536 L493.02 203.39 L493.451 201.972 L493.305 200.498 L492.607 199.191 L492.081 198.664 L490.774 197.966 L490.043 197.82 L488.569 197.966 L487.262 198.664 L486.735 199.191 L486.037 200.498 L485.892 201.228 L486.014 202.585 L483.528 205.057 L483.117 205.673 L482.972 206.4 L482.981 219.344 Z " stroke="black" stroke-width="1" fill="none" />

<path d="M491.997 194.381 L491.997 194.381 " stroke="black" stroke-width="1" fill="none" />

<path d="M491.712 99.3283 L491.712 99.3283 " stroke="black" stroke-width="1" fill="none" />

<circle cx="489.671" cy="288" r="1.13386" stroke="black" stroke-width="1" fill="none" />


<circle cx="489.671" cy="220.8" r="0.755904" stroke="black" stroke-width="1" fill="none" />


<circle cx="489.671" cy="201.6" r="0.755904" stroke="black" stroke-width="1" fill="none" />


<path d="M489.94 247.805 L489.94 247.805 " stroke="black" stroke-width="1" fill="none" />

<path d="M489.86 259.672 L489.86 259.672 " stroke="black" stroke-width="1" fill="none" />

<path d="M488.14 318.425 L488.14 318.425 " stroke="black" stroke-width="1" fill="none" />

<path d="M476.632 264.952 L476.632 266.071 L476.849 267.167 L477.277 268.199 L477.897 269.125 L478.687 269.915 L479.616 270.535 L480.647 270.962 L481.743 271.181 L482.859 271.181 L483.955 270.962 L484.986 270.535 L485.915 269.915 L486.705 269.125 L487.325 268.199 L487.753 267.167 L487.97 266.071 L487.97 264.952 L487.753 263.856 L487.325 262.825 L486.705 261.899 L486.081 261.275 L486.081 246.467 L486.705 245.843 L487.325 244.917 L487.753 243.885 L487.97 242.789 L487.97 241.671 L487.753 240.574 L487.325 239.543 L486.705 238.617 L485.915 237.827 L484.986 237.207 L483.955 236.78 L482.859 236.561 L481.743 236.561 L480.647 236.78 L479.616 237.207 L478.687 237.827 L477.897 238.617 L477.277 239.543 L476.849 240.574 L476.632 241.671 L476.632 242.789 L476.849 243.885 L477.277 244.917 L477.897 245.843 L478.521 246.467 L478.521 261.275 L477.897 261.899 L477.277 262.825 L476.849 263.856 L476.632 264.952 Z " stroke="black" stroke-width="1" fill="none" />

<path d="M487.875 303.228 L487.875 303.228 " stroke="black" stroke-width="1" fill="none" />

<path d="M487.632 182.748 L487.632 182.748 " stroke="black" stroke-width="1" fill="none" />

<circle cx="484.871" cy="220.8" r="0.755904" stroke="black" stroke-width="1" fill="none" />


<path d="M484.097 295.638 L484.097 295.638 " stroke="black" stroke-width="1" fill="none" />

<path d="M409.092 278.215 L409.073 259.2 L409.364 257.745 L410.184 256.513 L419.784 246.913 L421.016 246.093 L422.471 245.802 L447.492 245.82 L447.473 211.2 L447.763 209.747 L448.586 208.515 L476.292 180.835 L476.292 99.7795 L431.701 99.7795 L430.967 99.6344 L429.962 99.1578 L429.384 98.6854 L428.722 97.7904 L428.435 97.1025 L428.273 96 L428.564 94.5468 L429.134 93.5906 L429.962 92.8422 L430.967 92.3656 L431.701 92.2205 L480.071 92.2023 L481.524 92.4915 L482.181 92.8422 L483.229 93.8899 L483.796 95.2592 L483.869 96 L483.869 182.4 L483.58 183.853 L482.756 185.085 L455.051 212.765 L455.069 249.6 L454.78 251.055 L453.956 252.287 L452.724 253.107 L451.271 253.398 L424.036 253.38 L416.651 260.765 L416.651 276.835 L439.349 299.611 L439.699 300.265 L439.988 301.72 L439.97 306.629 L440.594 307.253 L441.215 308.179 L441.642 309.211 L441.86 310.307 L441.86 311.426 L441.642 312.522 L441.215 313.553 L440.594 314.479 L439.805 315.269 L438.876 315.889 L437.846 316.316 L436.75 316.535 L435.631 316.535 L434.535 316.316 L433.503 315.889 L432.578 315.269 L431.788 314.479 L431.168 313.553 L430.741 312.522 L430.521 311.426 L430.521 310.307 L430.741 309.211 L431.168 308.179 L431.788 307.253 L432.411 306.629 L432.411 303.284 L410.184 281.087 L409.364 279.855 L409.144 279.141 L409.092 278.215 Z " stroke="black" stroke-width="1" fill="none" />

<path d="M483.832 280.441 L483.832 280.441 " stroke="black" stroke-width="1" fill="none" />

<circle cx="482.301" cy="310.866" r="1.13386" stroke="black" stroke-width="1" fill="none" />


<circle cx="482.301" cy="265.512" r="1.13386" stroke="black" stroke-width="1" fill="none" />


<circle cx="482.301" cy="242.23" r="0.755904" stroke="black" stroke-width="1" fill="none" />


<path d="M481.973 201.281 L481.973 201.281 " stroke="black" stroke-width="1" fill="none" />

<circle cx="480.071" cy="220.8" r="0.755904" stroke="black" stroke-width="1" fill="none" />


<path d="M480.68 202.57 L480.68 202.57 " stroke="black" stroke-width="1" fill="none" />

<path d="M480.424 202.882 L480.424 202.882 " stroke="black" stroke-width="1" fill="none" />

<path d="M474.742 248.069 L474.742 248.069 " stroke="black" stroke-width="1" fill="none" />

<path d="M474.662 259.937 L474.662 259.937 " stroke="black" stroke-width="1" fill="none" />

<path d="M472.512 104.036 L472.512 104.036 " stroke="black" stroke-width="1" fill="none" />

<path d="M472.373 179.409 L472.373 179.409 " stroke="black" stroke-width="1" fill="none" />

<path d="M468.907 295.559 L468.907 295.559 " stroke="black" stroke-width="1" fill="none" />

<path d="M463.29 280.501 L463.29 280.501 " stroke="black" stroke-width="1" fill="none" />

<path d="M461.524 281.235 L461.524 281.235 " stroke="black" stroke-width="1" fill="none" />

<path d="M458.97 214.191 L458.97 214.191 " stroke="black" stroke-width="1" fill="none" />

<path d="M453.78 329.386 L453.78 329.386 " stroke="black" stroke-width="1" fill="none" />

<path d="M443.75 305.027 L443.75 305.027 " stroke="black" stroke-width="1" fill="none" />

<path d="M443.235 242.041 L443.235 242.041 " stroke="black" stroke-width="1" fill="none" />

<circle cx="436.002" cy="265.323" r="5.69648" stroke="black" stroke-width="1" fill="none" />


<path d="M439.71 207.174 L439.71 207.174 " stroke="black" stroke-width="1" fill="none" />

<path d="M438.429 234.542 L438.429 234.542 " stroke="black" stroke-width="1" fill="none" />

<path d="M438.251 103.559 L438.251 103.559 " stroke="black" stroke-width="1" fill="none" />

<path d="M435.851 106.56 L437.453 106.56 L437.771 106.88 L437.782 109.357 L437.635 110.118 L437.215 110.744 L436.588 111.162 L435.851 111.309 L435.851 106.56 Z " stroke="black" stroke-width="1" fill="none" />

<path d="M426.402 202.158 L426.402 201.042 L426.621 199.946 L427.048 198.915 L427.668 197.986 L428.458 197.196 L429.384 196.576 L430.416 196.148 L431.512 195.931 L432.63 195.931 L433.726 196.148 L434.758 196.576 L435.684 197.196 L436.474 197.986 L437.094 198.915 L437.521 199.946 L437.74 201.042 L437.74 202.158 L437.521 203.254 L437.094 204.285 L436.474 205.214 L435.851 205.838 L435.869 230.4 L435.578 231.853 L434.758 233.085 L434.18 233.558 L432.812 234.127 L432.071 234.198 L412.501 234.18 L411.08 233.749 L410.184 233.085 L409.522 232.19 L409.235 231.502 L409.073 230.4 L409.235 229.298 L409.715 228.29 L410.463 227.464 L411.416 226.891 L412.501 226.62 L428.292 226.62 L428.292 205.838 L427.668 205.214 L427.048 204.285 L426.621 203.254 L426.402 202.158 Z " stroke="black" stroke-width="1" fill="none" />

<circle cx="436.191" cy="310.866" r="1.13386" stroke="black" stroke-width="1" fill="none" />


<circle cx="436.002" cy="265.323" r="1.13386" stroke="black" stroke-width="1" fill="none" />


<path d="M386.906 143.861 L386.906 152.426 L404.446 169.965 L429.236 169.965 L429.236 154.236 L429.614 152.958 L429.614 151.143 L434.528 151.143 L434.528 152.958 L434.906 154.236 L434.906 170.29 L435.42 171.01 L435.851 172.428 L435.707 173.902 L435.42 174.59 L435.008 175.209 L433.863 176.149 L432.441 176.58 L430.967 176.434 L429.561 175.635 L403.271 175.648 L402.183 175.432 L401.257 174.814 L381.701 155.182 L381.278 154.156 L381.221 153.6 L381.236 103.31 L380.435 101.902 L380.292 100.428 L380.435 99.6975 L381.134 98.3906 L382.28 97.4506 L383.701 97.0205 L385.175 97.1656 L386.479 97.8641 L387.42 99.0096 L387.851 100.428 L387.707 101.902 L386.906 103.31 L386.906 143.861 Z " stroke="black" stroke-width="1" fill="none" />

<path d="M433.726 3.19068 L433.726 3.19068 " stroke="black" stroke-width="1" fill="none" />

<path d="M433.281 3.07313 L433.281 3.07313 " stroke="black" stroke-width="1" fill="none" />

<circle cx="432.071" cy="105.6" r="1.13386" stroke="black" stroke-width="1" fill="none" />


<circle cx="432.071" cy="96" r="1.13386" stroke="black" stroke-width="1" fill="none" />


<circle cx="432.071" cy="201.6" r="0.755904" stroke="black" stroke-width="1" fill="none" />


<circle cx="432.071" cy="172.8" r="0.755904" stroke="black" stroke-width="1" fill="none" />


<circle cx="432.071" cy="153.6" r="0.755904" stroke="black" stroke-width="1" fill="none" />


<circle cx="432.071" cy="144" r="0.755904" stroke="black" stroke-width="1" fill="none" />


<path d="M432.373 2.98356 L432.373 2.98356 " stroke="black" stroke-width="1" fill="none" />

<path d="M432.211 6.76535 L432.211 6.76535 " stroke="black" stroke-width="1" fill="none" />

<path d="M430.125 257.635 L430.125 257.635 " stroke="black" stroke-width="1" fill="none" />

<path d="M430.117 257.73 L430.117 257.73 " stroke="black" stroke-width="1" fill="none" />

<path d="M430.113 257.541 L430.113 257.541 " stroke="black" stroke-width="1" fill="none" />

<path d="M430.091 257.817 L430.091 257.817 " stroke="black" stroke-width="1" fill="none" />

<path d="M430.087 257.454 L430.087 257.454 " stroke="black" stroke-width="1" fill="none" />

<path d="M430.045 257.9 L430.045 257.9 " stroke="black" stroke-width="1" fill="none" />

<path d="M430.041 257.371 L430.041 257.371 " stroke="black" stroke-width="1" fill="none" />

<path d="M429.989 257.975 L429.989 257.975 " stroke="black" stroke-width="1" fill="none" />

<path d="M429.981 257.299 L429.981 257.299 " stroke="black" stroke-width="1" fill="none" />

<path d="M429.909 257.238 L429.909 257.238 " stroke="black" stroke-width="1" fill="none" />

<path d="M429.826 257.197 L429.826 257.197 " stroke="black" stroke-width="1" fill="none" />

<path d="M429.735 257.167 L429.735 257.167 " stroke="black" stroke-width="1" fill="none" />

<path d="M263.421 20.8535 L263.202 19.7582 L263.202 18.6418 L263.421 17.5465 L263.848 16.5146 L264.468 15.586 L265.258 14.7965 L266.184 14.1759 L267.216 13.7484 L268.312 13.5307 L269.43 13.5307 L270.526 13.7484 L271.558 14.1759 L272.484 14.7965 L273.108 15.4205 L278.471 15.4023 L279.926 15.6915 L280.58 16.0422 L289.825 25.2106 L365.105 34.6205 L412.871 34.6023 L414.326 34.8915 L414.98 35.2422 L415.558 35.7146 L416.378 36.9468 L416.669 38.4 L416.651 91.5746 L416.378 92.8422 L415.706 93.8925 L415.702 135.309 L426.746 146.399 L427.989 146.438 L429.18 147.234 L429.728 148.558 L429.633 149.517 L429.18 150.366 L428.435 150.977 L427.513 151.257 L426.553 151.162 L425.706 150.708 L425.094 149.964 L424.867 149.306 L423.888 148.837 L413.03 137.981 L411.783 137.78 L410.857 137.162 L410.501 136.731 L410.078 135.704 L410.036 93.8925 L409.364 92.8422 L409.092 91.5746 L409.092 42.1795 L364.588 42.1735 L287.33 32.5247 L286.616 32.3085 L285.584 31.6717 L276.906 22.9795 L273.108 22.9795 L272.484 23.6035 L271.558 24.2241 L270.526 24.6516 L269.43 24.8693 L268.312 24.8693 L267.216 24.6516 L266.184 24.2241 L265.258 23.6035 L264.468 22.814 L263.848 21.8854 L263.421 20.8535 Z " stroke="black" stroke-width="1" fill="none" />

<path d="M428.613 305.129 L428.613 305.129 " stroke="black" stroke-width="1" fill="none" />

<path d="M428.613 304.944 L428.613 304.944 " stroke="black" stroke-width="1" fill="none" />

<path d="M428.586 305.22 L428.586 305.22 " stroke="black" stroke-width="1" fill="none" />

<path d="M428.545 305.303 L428.545 305.303 " stroke="black" stroke-width="1" fill="none" />

<path d="M428.541 304.774 L428.541 304.774 " stroke="black" stroke-width="1" fill="none" />

<path d="M428.484 179.494 L428.484 179.494 " stroke="black" stroke-width="1" fill="none" />

<path d="M426.372 106.88 L426.689 106.56 L428.292 106.56 L428.292 111.309 L427.218 110.984 L426.508 110.118 L426.36 109.357 L426.372 106.88 Z " stroke="black" stroke-width="1" fill="none" />

<circle cx="427.271" cy="148.8" r="0.755904" stroke="black" stroke-width="1" fill="none" />


<path d="M425.801 257.159 L425.801 257.159 " stroke="black" stroke-width="1" fill="none" />

<path d="M425.703 257.17 L425.703 257.17 " stroke="black" stroke-width="1" fill="none" />

<path d="M425.616 257.197 L425.616 257.197 " stroke="black" stroke-width="1" fill="none" />

<path d="M424.036 222.841 L424.036 222.841 " stroke="black" stroke-width="1" fill="none" />

<path d="M422.123 242.037 L422.123 242.037 " stroke="black" stroke-width="1" fill="none" />

<path d="M420.57 262.193 L420.57 262.193 " stroke="black" stroke-width="1" fill="none" />

<path d="M420.509 262.265 L420.509 262.265 " stroke="black" stroke-width="1" fill="none" />

<path d="M420.468 275.255 L420.468 275.255 " stroke="black" stroke-width="1" fill="none" />

<path d="M420.441 275.169 L420.441 275.169 " stroke="black" stroke-width="1" fill="none" />

<path d="M420.43 275.07 L420.43 275.07 " stroke="black" stroke-width="1" fill="none" />

<path d="M419.485 133.548 L419.485 133.548 " stroke="black" stroke-width="1" fill="none" />

<path d="M419.478 26.8985 L419.478 26.8985 " stroke="black" stroke-width="1" fill="none" />

<circle cx="412.871" cy="230.4" r="0.755904" stroke="black" stroke-width="1" fill="none" />


<path d="M409.092 278.585 L409.092 278.585 " stroke="black" stroke-width="1" fill="none" />

<path d="M403.131 175.635 L403.131 175.635 " stroke="black" stroke-width="1" fill="none" />

<path d="M387.851 211.014 L387.851 205.757 L388.229 205.757 L388.229 197.443 L379.914 197.443 L379.914 205.757 L380.292 205.757 L380.292 207.42 L358.106 207.42 L358.106 51.7795 L360.94 51.7795 L360.94 50.8346 L382.896 50.8346 L390.836 58.7743 L390.836 96.8315 L389.703 96.8315 L389.703 104.769 L397.64 104.769 L397.64 96.8315 L396.506 96.8315 L396.464 57.0444 L396.041 56.0175 L395.686 55.5859 L385.655 45.6317 L384.627 45.2066 L384.071 45.1517 L360.94 45.1654 L360.94 44.2205 L340.308 44.2205 L339.684 43.5965 L338.758 42.9759 L337.726 42.5484 L336.63 42.3307 L335.512 42.3307 L334.416 42.5484 L333.384 42.9759 L332.458 43.5965 L331.834 44.2205 L316.13 44.2753 L315.416 44.4915 L314.184 45.3146 L301.451 58.0755 L301.398 56.8592 L301.178 56.1468 L300.358 54.9146 L282.443 36.9997 L281.211 36.1761 L280.497 35.9603 L135.756 35.8874 L134.301 36.1761 L133.647 36.5272 L131.315 38.86 L130.744 40.2289 L130.673 40.9701 L130.692 101.362 L130.068 101.986 L129.448 102.915 L129.021 103.946 L128.802 105.042 L128.802 106.158 L129.021 107.254 L129.448 108.285 L130.068 109.214 L130.692 109.838 L130.692 149.82 L120.94 149.82 L120.94 147.931 L109.602 147.931 L109.602 159.269 L120.94 159.269 L120.94 157.38 L188.292 157.38 L188.292 206.962 L187.668 207.586 L187.048 208.515 L186.621 209.546 L186.402 210.642 L186.402 211.758 L186.621 212.854 L187.048 213.885 L187.668 214.814 L188.292 215.438 L188.292 228.835 L182.796 234.331 L181.912 234.331 L180.816 234.55 L179.784 234.977 L178.858 235.597 L178.068 236.387 L177.448 237.313 L177.021 238.345 L176.802 239.441 L176.802 240.325 L160.584 256.513 L159.764 257.745 L159.544 258.459 L159.544 298.341 L159.764 299.055 L160.584 300.287 L170.762 310.356 L172.13 310.927 L172.871 310.998 L180.732 310.98 L182.063 311.357 L183.684 311.199 L184.44 310.885 L185.517 310.035 L247.169 310.035 L248.216 310.707 L248.93 310.927 L250.412 310.927 L251.126 310.707 L252.211 310.004 L260.836 301.38 L343.932 301.38 L345.263 301.757 L346.079 301.757 L347.41 301.38 L384.071 301.398 L385.526 301.107 L386.758 300.287 L387.227 299.709 L387.798 298.341 L387.869 297.6 L387.851 247.703 L388.988 247.253 L389.914 246.633 L390.704 245.843 L391.324 244.917 L391.751 243.885 L391.97 242.789 L391.97 241.671 L391.751 240.574 L391.324 239.543 L390.704 238.617 L389.914 237.827 L388.988 237.207 L387.851 236.757 L387.851 235.124 L388.795 235.124 L388.795 225.676 L387.851 225.676 L387.851 211.014 Z " stroke="black" stroke-width="1" fill="none" />

<path d="M395.772 55.694 L395.772 55.694 " stroke="black" stroke-width="1" fill="none" />

<circle cx="393.671" cy="100.8" r="1.13386" stroke="black" stroke-width="1" fill="none" />


<path d="M392.677 235.23 L392.677 235.23 " stroke="black" stroke-width="1" fill="none" />

<path d="M392.635 235.151 L392.635 235.151 " stroke="black" stroke-width="1" fill="none" />

<path d="M392.594 234.966 L392.594 234.966 " stroke="black" stroke-width="1" fill="none" />

<path d="M391.842 249.891 L391.842 249.891 " stroke="black" stroke-width="1" fill="none" />

<path d="M391.709 250.027 L391.709 250.027 " stroke="black" stroke-width="1" fill="none" />

<path d="M391.664 250.11 L391.664 250.11 " stroke="black" stroke-width="1" fill="none" />

<path d="M391.638 250.197 L391.638 250.197 " stroke="black" stroke-width="1" fill="none" />

<path d="M361.073 182.4 L361.235 183.502 L361.934 184.809 L371.784 194.685 L373.016 195.509 L374.471 195.798 L382.332 195.78 L383.663 196.157 L384.479 196.157 L386.04 195.684 L386.721 195.229 L387.756 193.969 L388.229 192.409 L388.07 190.787 L387.756 190.031 L386.721 188.771 L385.284 188.002 L384.479 187.843 L383.663 187.843 L382.332 188.22 L376.036 188.22 L367.279 179.464 L366.326 178.891 L365.612 178.675 L364.501 178.62 L363.767 178.766 L362.762 179.242 L362.184 179.715 L361.522 180.61 L361.235 181.298 L361.073 182.4 Z " stroke="black" stroke-width="1" fill="none" />

<path d="M380.976 177.15 L381.924 176.683 L383.081 176.374 L384.275 176.296 L385.462 176.454 L386.603 176.843 L387.163 177.141 L387.389 177.722 L386.494 178.62 L385.81 178.62 L384.479 178.243 L383.663 178.243 L382.858 178.402 L381.886 178.859 L380.753 177.722 L380.976 177.15 Z " stroke="black" stroke-width="1" fill="none" />

<circle cx="386.301" cy="242.23" r="0.755904" stroke="black" stroke-width="1" fill="none" />


<path d="M386.906 143.861 L386.906 143.861 " stroke="black" stroke-width="1" fill="none" />

<path d="M385.976 45.8971 L385.976 45.8971 " stroke="black" stroke-width="1" fill="none" />

<path d="M385.655 45.6317 L385.655 45.6317 " stroke="black" stroke-width="1" fill="none" />

<circle cx="384.071" cy="100.8" r="1.13386" stroke="black" stroke-width="1" fill="none" />


<circle cx="384.071" cy="192" r="1.13386" stroke="black" stroke-width="1" fill="none" />


<circle cx="384.071" cy="182.4" r="1.13386" stroke="black" stroke-width="1" fill="none" />


<circle cx="384.071" cy="201.6" r="1.13386" stroke="black" stroke-width="1" fill="none" />


<circle cx="384.071" cy="230.4" r="0.755904" stroke="black" stroke-width="1" fill="none" />


<path d="M384.211 45.1654 L384.211 45.1654 " stroke="black" stroke-width="1" fill="none" />

<path d="M381.236 153.739 L381.236 153.739 " stroke="black" stroke-width="1" fill="none" />

<path d="M138.251 101.362 L138.251 43.4646 L278.191 43.4646 L293.892 59.1655 L293.892 70.9795 L301.451 70.9795 L301.451 68.7655 L318.436 51.7795 L331.834 51.7795 L332.458 52.4035 L333.384 53.0241 L334.416 53.4516 L335.512 53.6693 L336.63 53.6693 L337.726 53.4516 L338.758 53.0241 L339.684 52.4035 L340.308 51.7795 L352.436 51.7795 L352.436 208.696 L351.764 209.747 L351.544 210.459 L351.544 211.941 L351.764 212.653 L352.584 213.885 L353.816 214.709 L354.53 214.925 L380.292 214.98 L380.292 225.676 L379.347 225.676 L379.347 235.124 L380.292 235.124 L380.292 293.82 L347.41 293.82 L346.079 293.443 L345.263 293.443 L343.932 293.82 L259.271 293.802 L257.816 294.093 L256.584 294.913 L247.161 304.365 L185.517 304.365 L184.44 303.515 L182.879 303.043 L182.063 303.043 L180.732 303.42 L174.436 303.42 L167.051 296.035 L167.051 260.765 L182.146 245.669 L183.03 245.669 L184.126 245.45 L185.158 245.023 L186.084 244.403 L186.874 243.613 L187.494 242.687 L187.921 241.655 L188.14 240.559 L188.14 239.675 L194.758 233.085 L195.578 231.853 L195.798 231.141 L195.851 215.438 L196.474 214.814 L197.094 213.885 L197.521 212.854 L197.74 211.758 L197.74 210.642 L197.521 209.546 L197.094 208.515 L196.474 207.586 L195.851 206.962 L195.798 152.859 L195.578 152.147 L194.758 150.915 L193.526 150.091 L192.071 149.802 L138.251 149.82 L138.251 109.838 L138.874 109.214 L139.494 108.285 L139.921 107.254 L140.14 106.158 L140.14 105.042 L139.921 103.946 L139.494 102.915 L138.874 101.986 L138.251 101.362 Z " stroke="black" stroke-width="1" fill="none" />

<path d="M377.468 154.033 L377.468 154.033 " stroke="black" stroke-width="1" fill="none" />

<path d="M377.453 153.902 L377.453 153.902 " stroke="black" stroke-width="1" fill="none" />

<path d="M370.775 177.615 L370.775 177.615 " stroke="black" stroke-width="1" fill="none" />

<path d="M347.576 194.103 L331.146 210.532 L367.558 246.913 L368.378 248.145 L368.669 249.6 L368.669 288 L368.378 289.455 L367.558 290.687 L366.98 291.156 L365.612 291.727 L364.871 291.798 L347.41 291.78 L346.079 292.157 L345.263 292.157 L343.702 291.685 L343.022 291.228 L341.986 289.969 L341.514 288.408 L341.672 286.787 L341.986 286.031 L343.022 284.772 L344.458 284.001 L346.079 283.843 L347.41 284.22 L361.092 284.22 L361.092 251.165 L324.906 214.98 L292.308 214.98 L291.684 215.604 L290.758 216.224 L289.726 216.652 L288.63 216.869 L287.512 216.869 L286.416 216.652 L285.384 216.224 L284.458 215.604 L283.668 214.814 L283.048 213.885 L282.621 212.854 L282.402 211.758 L282.402 210.642 L282.621 209.546 L283.048 208.515 L283.668 207.586 L284.458 206.796 L285.384 206.176 L286.416 205.748 L287.512 205.531 L288.63 205.531 L289.726 205.748 L290.758 206.176 L291.684 206.796 L292.308 207.42 L326.241 207.42 L342.836 190.826 L342.836 166.035 L223.706 166.035 L223.706 188.22 L224.651 188.22 L224.598 198.864 L224.261 199.796 L223.558 200.808 L215.051 209.288 L215.069 278.4 L214.778 279.855 L213.958 281.087 L204.211 290.804 L203.126 291.507 L202.412 291.727 L200.93 291.727 L200.216 291.507 L199.169 290.835 L185.517 290.835 L184.44 291.685 L183.684 291.999 L182.063 292.157 L180.502 291.685 L179.243 290.649 L178.786 289.969 L178.314 288.408 L178.472 286.787 L179.243 285.351 L180.502 284.315 L181.258 284.001 L182.879 283.843 L184.44 284.315 L185.517 285.165 L199.161 285.165 L207.492 276.835 L207.544 206.982 L207.764 206.27 L208.584 205.037 L217.092 196.557 L217.092 188.22 L218.036 188.22 L218.021 163.2 L218.078 162.644 L218.501 161.618 L219.287 160.832 L220.315 160.407 L220.871 160.352 L346.227 160.407 L347.255 160.832 L348.041 161.618 L348.464 162.644 L348.521 163.2 L348.521 192 L348.302 193.09 L347.576 194.103 Z " stroke="black" stroke-width="1" fill="none" />

<path d="M368.378 248.145 L368.378 248.145 " stroke="black" stroke-width="1" fill="none" />

<circle cx="364.871" cy="182.4" r="0.755904" stroke="black" stroke-width="1" fill="none" />


<path d="M361.885 134.052 L361.885 134.052 " stroke="black" stroke-width="1" fill="none" />

<path d="M358.106 134.261 L358.106 134.261 " stroke="black" stroke-width="1" fill="none" />

<circle cx="355.271" cy="19.1999" r="0.755903" stroke="black" stroke-width="1" fill="none" />


<circle cx="355.271" cy="47.9999" r="0.755903" stroke="black" stroke-width="1" fill="none" />


<path d="M178.314 297.192 L178.472 298.813 L179.243 300.249 L180.502 301.285 L182.063 301.757 L183.684 301.599 L184.44 301.285 L185.517 300.435 L227.969 300.435 L229.016 301.107 L230.471 301.398 L231.926 301.107 L233.158 300.287 L233.978 299.055 L234.251 297.785 L234.251 243.78 L274.234 243.78 L274.858 244.403 L275.784 245.023 L276.816 245.45 L277.912 245.669 L279.03 245.669 L280.126 245.45 L281.158 245.023 L282.084 244.403 L282.708 243.78 L334.506 243.78 L341.892 251.165 L341.892 274.243 L341.514 274.243 L341.514 282.557 L349.829 282.557 L349.829 274.243 L349.451 274.243 L349.398 248.859 L349.178 248.145 L348.358 246.913 L338.758 237.313 L337.526 236.493 L336.812 236.273 L282.708 236.22 L282.084 235.597 L281.158 234.977 L280.126 234.55 L279.03 234.331 L277.912 234.331 L276.816 234.55 L275.784 234.977 L274.858 235.597 L274.234 236.22 L234.251 236.22 L234.251 188.22 L226.692 188.22 L226.692 294.765 L185.517 294.765 L184.44 293.915 L183.684 293.601 L182.063 293.443 L181.258 293.601 L179.822 294.372 L178.786 295.631 L178.314 297.192 Z " stroke="black" stroke-width="1" fill="none" />

<path d="M347.772 193.906 L347.772 193.906 " stroke="black" stroke-width="1" fill="none" />

<circle cx="345.671" cy="307.2" r="1.13386" stroke="black" stroke-width="1" fill="none" />


<circle cx="345.671" cy="297.6" r="1.13386" stroke="black" stroke-width="1" fill="none" />


<circle cx="345.671" cy="288" r="1.13386" stroke="black" stroke-width="1" fill="none" />


<circle cx="345.671" cy="278.4" r="1.13386" stroke="black" stroke-width="1" fill="none" />


<path d="M293.892 77.1723 L294.035 75.6975 L294.734 74.3906 L295.88 73.4506 L297.301 73.0205 L336.071 73.0023 L337.526 73.2915 L338.758 74.1146 L339.227 74.6899 L339.798 76.0592 L339.869 76.8 L339.851 139.762 L340.474 140.386 L341.094 141.315 L341.521 142.346 L341.74 143.442 L341.74 144.558 L341.521 145.654 L341.094 146.685 L340.474 147.614 L339.684 148.404 L338.758 149.024 L337.726 149.452 L336.63 149.669 L335.512 149.669 L334.416 149.452 L333.384 149.024 L332.458 148.404 L331.834 147.78 L308.836 147.78 L300.358 156.285 L299.126 157.109 L297.671 157.398 L209.532 157.398 L208.077 157.109 L206.845 156.285 L198.515 147.849 L197.944 146.479 L197.873 145.739 L197.892 130.62 L205.451 130.62 L205.451 144.173 L211.097 149.82 L296.106 149.82 L304.584 141.315 L305.816 140.491 L306.53 140.275 L331.834 140.22 L332.292 139.762 L332.292 80.5795 L297.301 80.5795 L296.216 80.3085 L294.984 79.4854 L294.322 78.5904 L293.892 77.1723 Z " stroke="black" stroke-width="1" fill="none" />

<path d="M339.008 16.2142 L339.008 16.2142 " stroke="black" stroke-width="1" fill="none" />

<circle cx="336.071" cy="47.9999" r="0.755903" stroke="black" stroke-width="1" fill="none" />


<circle cx="336.071" cy="144" r="0.755904" stroke="black" stroke-width="1" fill="none" />


<path d="M336.256 236.22 L336.256 236.22 " stroke="black" stroke-width="1" fill="none" />

<path d="M335.931 6.76535 L335.931 6.76535 " stroke="black" stroke-width="1" fill="none" />

<path d="M335.769 2.98356 L335.769 2.98356 " stroke="black" stroke-width="1" fill="none" />

<path d="M266.036 188.22 L265.092 188.22 L265.092 195.78 L272.651 195.78 L272.651 188.22 L271.706 188.22 L271.706 175.635 L306.096 175.635 L315.287 184.768 L316.315 185.193 L316.871 185.248 L321.546 185.235 L322.068 186.014 L322.858 186.804 L323.784 187.424 L324.816 187.852 L325.912 188.069 L327.03 188.069 L328.126 187.852 L329.158 187.424 L330.084 186.804 L330.874 186.014 L331.494 185.085 L331.921 184.054 L332.14 182.958 L332.14 181.842 L331.921 180.746 L331.494 179.715 L330.874 178.786 L330.084 177.996 L329.158 177.376 L328.126 176.948 L327.03 176.731 L325.912 176.731 L324.816 176.948 L323.784 177.376 L322.858 177.996 L322.068 178.786 L321.546 179.565 L318.046 179.565 L309.286 170.786 L308.855 170.432 L307.827 170.007 L268.871 169.952 L268.315 170.007 L267.287 170.432 L266.501 171.218 L266.078 172.244 L266.036 188.22 Z " stroke="black" stroke-width="1" fill="none" />

<path d="M328.376 21.3029 L328.376 21.3029 " stroke="black" stroke-width="1" fill="none" />

<circle cx="326.471" cy="182.4" r="0.755903" stroke="black" stroke-width="1" fill="none" />


<path d="M326.611 22.0346 L326.611 22.0346 " stroke="black" stroke-width="1" fill="none" />

<path d="M274.692 138.18 L274.673 124.8 L274.964 123.347 L275.784 122.115 L285.962 112.042 L286.616 111.691 L288.071 111.402 L312.634 111.42 L313.258 110.796 L314.184 110.176 L315.216 109.748 L316.312 109.531 L317.43 109.531 L318.526 109.748 L319.558 110.176 L320.484 110.796 L321.274 111.586 L321.894 112.515 L322.321 113.546 L322.54 114.642 L322.54 115.758 L322.321 116.854 L321.894 117.885 L321.274 118.814 L320.484 119.604 L319.558 120.224 L318.526 120.652 L317.43 120.869 L316.312 120.869 L315.216 120.652 L314.184 120.224 L313.258 119.604 L312.634 118.98 L289.636 118.98 L282.251 126.365 L282.251 138.18 L274.692 138.18 Z " stroke="black" stroke-width="1" fill="none" />

<circle cx="316.871" cy="19.1999" r="0.755903" stroke="black" stroke-width="1" fill="none" />


<circle cx="316.871" cy="115.2" r="0.755903" stroke="black" stroke-width="1" fill="none" />


<path d="M316.731 185.235 L316.731 185.235 " stroke="black" stroke-width="1" fill="none" />

<path d="M309.176 170.697 L309.176 170.697 " stroke="black" stroke-width="1" fill="none" />

<path d="M308.855 170.432 L308.855 170.432 " stroke="black" stroke-width="1" fill="none" />

<path d="M307.411 169.965 L307.411 169.965 " stroke="black" stroke-width="1" fill="none" />

<path d="M306.923 136.439 L306.923 136.439 " stroke="black" stroke-width="1" fill="none" />

<path d="M293.892 195.78 L301.451 195.78 L301.451 188.22 L293.892 188.22 L293.892 195.78 Z " stroke="black" stroke-width="1" fill="none" />

<circle cx="297.671" cy="86.4" r="3.79802" stroke="black" stroke-width="1" fill="none" />


<path d="M293.892 130.62 L301.451 130.62 L301.451 138.18 L293.892 138.18 L293.892 130.62 Z " stroke="black" stroke-width="1" fill="none" />

<path d="M294.81 100.954 L296.341 101.57 L297.452 101.723 L298.574 101.656 L299.659 101.371 L300.536 100.944 L300.729 100.415 L299.583 99.2685 L298.041 99.7795 L295.248 99.7795 L294.613 100.415 L294.81 100.954 Z " stroke="black" stroke-width="1" fill="none" />

<circle cx="297.671" cy="96.0001" r="1.13386" stroke="black" stroke-width="1" fill="none" />


<circle cx="297.671" cy="76.8001" r="1.13386" stroke="black" stroke-width="1" fill="none" />


<circle cx="297.671" cy="192" r="1.13386" stroke="black" stroke-width="1" fill="none" />


<circle cx="297.671" cy="86.4001" r="1.13386" stroke="black" stroke-width="1" fill="none" />


<circle cx="297.671" cy="134.4" r="1.13386" stroke="black" stroke-width="1" fill="none" />


<circle cx="297.671" cy="67.2001" r="1.13386" stroke="black" stroke-width="1" fill="none" />


<path d="M297.856 157.38 L297.856 157.38 " stroke="black" stroke-width="1" fill="none" />

<path d="M291.851 188.22 L284.292 188.22 L284.292 195.78 L291.851 195.78 L291.851 188.22 Z " stroke="black" stroke-width="1" fill="none" />

<path d="M284.292 138.18 L291.851 138.18 L291.851 130.62 L284.292 130.62 L284.292 138.18 Z " stroke="black" stroke-width="1" fill="none" />

<circle cx="288.071" cy="134.4" r="1.13386" stroke="black" stroke-width="1" fill="none" />


<circle cx="288.071" cy="192" r="1.13386" stroke="black" stroke-width="1" fill="none" />


<circle cx="288.071" cy="211.2" r="0.755903" stroke="black" stroke-width="1" fill="none" />


<path d="M287.723 107.639 L287.723 107.639 " stroke="black" stroke-width="1" fill="none" />

<path d="M274.692 188.22 L282.251 188.22 L282.251 195.78 L274.692 195.78 L274.692 188.22 Z " stroke="black" stroke-width="1" fill="none" />

<path d="M279.941 35.9055 L279.941 35.9055 " stroke="black" stroke-width="1" fill="none" />

<circle cx="278.471" cy="192" r="1.13386" stroke="black" stroke-width="1" fill="none" />


<circle cx="278.471" cy="134.4" r="1.13386" stroke="black" stroke-width="1" fill="none" />


<circle cx="278.471" cy="240" r="0.755903" stroke="black" stroke-width="1" fill="none" />


<path d="M278.819 11.6387 L278.819 11.6387 " stroke="black" stroke-width="1" fill="none" />

<path d="M278.656 15.4205 L278.656 15.4205 " stroke="black" stroke-width="1" fill="none" />

<path d="M275.478 26.8985 L275.478 26.8985 " stroke="black" stroke-width="1" fill="none" />

<path d="M274.71 26.7591 L274.71 26.7591 " stroke="black" stroke-width="1" fill="none" />

<path d="M272.651 130.62 L272.651 119.438 L273.274 118.814 L273.894 117.885 L274.321 116.854 L274.54 115.758 L274.54 114.642 L274.321 113.546 L273.894 112.515 L273.274 111.586 L272.484 110.796 L271.558 110.176 L270.526 109.748 L269.43 109.531 L268.312 109.531 L267.216 109.748 L266.184 110.176 L265.258 110.796 L264.468 111.586 L263.848 112.515 L263.421 113.546 L263.202 114.642 L263.202 115.758 L263.421 116.854 L263.848 117.885 L264.468 118.814 L265.092 119.438 L265.092 138.18 L272.651 138.18 L272.651 130.62 Z " stroke="black" stroke-width="1" fill="none" />

<circle cx="268.871" cy="192" r="1.13386" stroke="black" stroke-width="1" fill="none" />


<circle cx="268.871" cy="134.4" r="1.13386" stroke="black" stroke-width="1" fill="none" />


<circle cx="268.871" cy="19.1999" r="0.755903" stroke="black" stroke-width="1" fill="none" />


<circle cx="268.871" cy="115.2" r="0.755903" stroke="black" stroke-width="1" fill="none" />


<path d="M255.492 130.62 L263.051 130.62 L263.051 138.18 L255.492 138.18 L255.492 130.62 Z " stroke="black" stroke-width="1" fill="none" />

<path d="M255.492 195.78 L263.051 195.78 L263.051 188.22 L255.492 188.22 L255.492 195.78 Z " stroke="black" stroke-width="1" fill="none" />

<path d="M262.601 305.159 L262.601 305.159 " stroke="black" stroke-width="1" fill="none" />

<path d="M262.503 305.17 L262.503 305.17 " stroke="black" stroke-width="1" fill="none" />

<path d="M262.416 305.197 L262.416 305.197 " stroke="black" stroke-width="1" fill="none" />

<circle cx="259.271" cy="192" r="1.13386" stroke="black" stroke-width="1" fill="none" />


<circle cx="259.271" cy="134.4" r="1.13386" stroke="black" stroke-width="1" fill="none" />


<path d="M253.023 74.8063 L255.374 77.1587 L255.325 75.8974 L255.042 74.8116 L254.615 73.9344 L254.086 73.7427 L253.023 74.8063 Z " stroke="black" stroke-width="1" fill="none" />

<path d="M254.426 126.957 L254.426 126.957 " stroke="black" stroke-width="1" fill="none" />

<path d="M254.331 126.938 L254.331 126.938 " stroke="black" stroke-width="1" fill="none" />

<path d="M245.892 188.22 L253.451 188.22 L253.451 195.78 L245.892 195.78 L245.892 188.22 Z " stroke="black" stroke-width="1" fill="none" />

<path d="M245.892 138.18 L253.451 138.18 L253.451 130.62 L245.892 130.62 L245.892 138.18 Z " stroke="black" stroke-width="1" fill="none" />

<circle cx="249.671" cy="76.8001" r="1.13386" stroke="black" stroke-width="1" fill="none" />


<circle cx="249.671" cy="192" r="1.13386" stroke="black" stroke-width="1" fill="none" />


<circle cx="249.671" cy="134.4" r="1.13386" stroke="black" stroke-width="1" fill="none" />


<path d="M236.435 77.9025 L236.292 76.4277 L236.722 75.0096 L237.663 73.8641 L238.967 73.1656 L240.441 73.0205 L241.863 73.4506 L243.008 74.3906 L243.707 75.6975 L243.851 76.4277 L243.707 77.9025 L242.906 79.3104 L242.906 130.62 L243.851 130.62 L243.851 138.18 L236.292 138.18 L236.292 130.62 L237.236 130.62 L237.236 79.3104 L236.435 77.9025 Z " stroke="black" stroke-width="1" fill="none" />

<path d="M236.292 195.78 L243.851 195.78 L243.851 188.22 L236.292 188.22 L236.292 195.78 Z " stroke="black" stroke-width="1" fill="none" />

<circle cx="240.071" cy="76.8001" r="1.13386" stroke="black" stroke-width="1" fill="none" />


<circle cx="240.071" cy="192" r="1.13386" stroke="black" stroke-width="1" fill="none" />


<circle cx="240.071" cy="134.4" r="1.13386" stroke="black" stroke-width="1" fill="none" />


<path d="M226.692 77.1723 L226.835 75.6975 L227.534 74.3906 L228.68 73.4506 L230.101 73.0205 L231.575 73.1656 L232.879 73.8641 L233.82 75.0096 L234.251 76.4277 L234.107 77.9025 L233.306 79.3104 L233.306 130.62 L234.251 130.62 L234.251 138.18 L226.692 138.18 L226.692 130.62 L227.636 130.62 L227.636 79.3104 L227.122 78.5904 L226.692 77.1723 Z " stroke="black" stroke-width="1" fill="none" />

<circle cx="230.471" cy="76.8001" r="1.13386" stroke="black" stroke-width="1" fill="none" />


<circle cx="230.471" cy="134.4" r="1.13386" stroke="black" stroke-width="1" fill="none" />


<circle cx="230.471" cy="192" r="1.13386" stroke="black" stroke-width="1" fill="none" />


<path d="M224.651 195.78 L224.651 195.78 " stroke="black" stroke-width="1" fill="none" />

<path d="M217.092 77.1723 L217.235 75.6975 L217.934 74.3906 L219.08 73.4506 L220.501 73.0205 L221.975 73.1656 L223.279 73.8641 L224.22 75.0096 L224.651 76.4277 L224.507 77.9025 L223.706 79.3104 L223.706 130.62 L224.651 130.62 L224.651 138.18 L217.092 138.18 L217.092 130.62 L218.036 130.62 L218.036 79.3104 L217.522 78.5904 L217.092 77.1723 Z " stroke="black" stroke-width="1" fill="none" />

<circle cx="220.871" cy="192" r="1.13386" stroke="black" stroke-width="1" fill="none" />


<circle cx="220.871" cy="134.4" r="1.13386" stroke="black" stroke-width="1" fill="none" />


<circle cx="220.871" cy="76.8001" r="1.13386" stroke="black" stroke-width="1" fill="none" />


<path d="M207.492 188.22 L215.051 188.22 L215.051 195.78 L207.492 195.78 L207.492 188.22 Z " stroke="black" stroke-width="1" fill="none" />

<path d="M207.492 77.1723 L207.635 75.6975 L208.334 74.3906 L209.48 73.4506 L210.901 73.0205 L212.375 73.1656 L213.679 73.8641 L214.62 75.0096 L215.051 76.4277 L214.907 77.9025 L214.106 79.3104 L214.106 130.62 L215.051 130.62 L215.051 138.18 L207.492 138.18 L207.492 130.62 L208.436 130.62 L208.436 79.3104 L207.922 78.5904 L207.492 77.1723 Z " stroke="black" stroke-width="1" fill="none" />

<circle cx="211.271" cy="192" r="1.13386" stroke="black" stroke-width="1" fill="none" />


<circle cx="211.271" cy="76.8001" r="1.13386" stroke="black" stroke-width="1" fill="none" />


<circle cx="211.271" cy="134.4" r="1.13386" stroke="black" stroke-width="1" fill="none" />


<path d="M197.892 105.228 L198.035 106.702 L198.734 108.009 L199.88 108.949 L201.301 109.38 L202.775 109.234 L204.079 108.536 L205.02 107.39 L205.451 105.972 L205.307 104.498 L204.506 103.09 L204.506 79.3104 L205.307 77.9025 L205.451 76.4277 L205.307 75.6975 L204.608 74.3906 L203.463 73.4506 L202.041 73.0205 L200.567 73.1656 L199.263 73.8641 L198.322 75.0096 L197.892 76.4277 L198.035 77.9025 L198.836 79.3104 L198.836 103.09 L198.322 103.81 L197.892 105.228 Z " stroke="black" stroke-width="1" fill="none" />

<path d="M205.451 138.18 L205.451 138.18 " stroke="black" stroke-width="1" fill="none" />

<path d="M197.892 195.78 L205.451 195.78 L205.451 188.22 L197.892 188.22 L197.892 195.78 Z " stroke="black" stroke-width="1" fill="none" />

<circle cx="201.671" cy="134.4" r="1.13386" stroke="black" stroke-width="1" fill="none" />


<circle cx="201.671" cy="192" r="1.13386" stroke="black" stroke-width="1" fill="none" />


<circle cx="201.671" cy="76.8001" r="1.13386" stroke="black" stroke-width="1" fill="none" />


<circle cx="201.671" cy="105.6" r="0.755903" stroke="black" stroke-width="1" fill="none" />


<path d="M195.851 195.78 L195.851 195.78 " stroke="black" stroke-width="1" fill="none" />

<circle cx="192.071" cy="192" r="1.13386" stroke="black" stroke-width="1" fill="none" />


<circle cx="192.071" cy="134.4" r="1.13386" stroke="black" stroke-width="1" fill="none" />


<circle cx="192.071" cy="211.2" r="0.755903" stroke="black" stroke-width="1" fill="none" />


<path d="M191.931 45.1654 L191.931 45.1654 " stroke="black" stroke-width="1" fill="none" />

<path d="M189.032 313.814 L189.032 313.814 " stroke="black" stroke-width="1" fill="none" />

<path d="M188.764 313.897 L188.764 313.897 " stroke="black" stroke-width="1" fill="none" />

<path d="M188.692 313.958 L188.692 313.958 " stroke="black" stroke-width="1" fill="none" />

<path d="M183.431 322.56 L183.752 322.877 L186.606 322.889 L187.702 322.56 L188.231 322.031 L188.522 321.335 L188.556 319.635 L186.629 319.635 L186.629 320.957 L183.658 320.957 L183.431 321.184 L183.431 322.56 Z " stroke="black" stroke-width="1" fill="none" />

<circle cx="182.471" cy="278.4" r="4.17755" stroke="black" stroke-width="1" fill="none" />


<circle cx="182.471" cy="268.8" r="4.17755" stroke="black" stroke-width="1" fill="none" />


<path d="M178.692 138.18 L186.251 138.18 L186.251 130.62 L178.692 130.62 L178.692 138.18 Z " stroke="black" stroke-width="1" fill="none" />

<path d="M178.692 195.78 L186.251 195.78 L186.251 188.22 L178.692 188.22 L178.692 195.78 Z " stroke="black" stroke-width="1" fill="none" />

<path d="M184.512 217.039 L184.512 217.039 " stroke="black" stroke-width="1" fill="none" />

<path d="M184.512 200.056 L184.512 200.056 " stroke="black" stroke-width="1" fill="none" />

<path d="M184.433 205.626 L184.433 205.626 " stroke="black" stroke-width="1" fill="none" />

<circle cx="182.471" cy="307.2" r="1.13386" stroke="black" stroke-width="1" fill="none" />


<circle cx="182.471" cy="268.8" r="1.13386" stroke="black" stroke-width="1" fill="none" />


<circle cx="182.471" cy="278.4" r="1.13386" stroke="black" stroke-width="1" fill="none" />


<circle cx="182.471" cy="288" r="1.13386" stroke="black" stroke-width="1" fill="none" />


<circle cx="182.471" cy="134.4" r="1.13386" stroke="black" stroke-width="1" fill="none" />


<circle cx="182.471" cy="192" r="1.13386" stroke="black" stroke-width="1" fill="none" />


<circle cx="182.471" cy="297.6" r="1.13386" stroke="black" stroke-width="1" fill="none" />


<circle cx="182.471" cy="316.8" r="1.13386" stroke="black" stroke-width="1" fill="none" />


<circle cx="182.471" cy="240" r="0.755903" stroke="black" stroke-width="1" fill="none" />


<path d="M177.811 141.862 L177.811 141.862 " stroke="black" stroke-width="1" fill="none" />

<path d="M177.716 141.843 L177.716 141.843 " stroke="black" stroke-width="1" fill="none" />

<path d="M176.651 195.78 L176.651 195.78 " stroke="black" stroke-width="1" fill="none" />

<path d="M169.092 138.18 L176.651 138.18 L176.651 130.62 L169.092 130.62 L169.092 138.18 Z " stroke="black" stroke-width="1" fill="none" />

<circle cx="172.871" cy="134.4" r="1.13386" stroke="black" stroke-width="1" fill="none" />


<circle cx="172.871" cy="192" r="1.13386" stroke="black" stroke-width="1" fill="none" />


<path d="M173.056 330.18 L173.056 330.18 " stroke="black" stroke-width="1" fill="none" />

<path d="M168.211 141.862 L168.211 141.862 " stroke="black" stroke-width="1" fill="none" />

<path d="M168.116 141.843 L168.116 141.843 " stroke="black" stroke-width="1" fill="none" />

<path d="M159.492 195.78 L167.051 195.78 L167.051 188.22 L159.492 188.22 L159.492 195.78 Z " stroke="black" stroke-width="1" fill="none" />

<path d="M159.492 130.62 L167.051 130.62 L167.051 138.18 L159.492 138.18 L159.492 130.62 Z " stroke="black" stroke-width="1" fill="none" />

<circle cx="163.271" cy="134.4" r="1.13386" stroke="black" stroke-width="1" fill="none" />


<circle cx="163.271" cy="192" r="1.13386" stroke="black" stroke-width="1" fill="none" />


<path d="M159.492 297.785 L159.492 297.785 " stroke="black" stroke-width="1" fill="none" />

<path d="M155.708 297.948 L155.708 297.948 " stroke="black" stroke-width="1" fill="none" />

<path d="M155.708 258.852 L155.708 258.852 " stroke="black" stroke-width="1" fill="none" />

<circle cx="144.071" cy="86.3999" r="0.755903" stroke="black" stroke-width="1" fill="none" />


<path d="M142.506 47.2441 L142.506 47.2441 " stroke="black" stroke-width="1" fill="none" />

<path d="M142.109 111.174 L142.109 111.174 " stroke="black" stroke-width="1" fill="none" />

<path d="M142.03 145.564 L142.03 145.564 " stroke="black" stroke-width="1" fill="none" />

<path d="M142.03 99.761 L142.03 99.761 " stroke="black" stroke-width="1" fill="none" />

<path d="M135.408 32.1237 L135.408 32.1237 " stroke="black" stroke-width="1" fill="none" />

<circle cx="134.471" cy="105.6" r="0.755903" stroke="black" stroke-width="1" fill="none" />


<path d="M133.908 328.362 L133.908 328.362 " stroke="black" stroke-width="1" fill="none" />

<path d="M133.836 328.301 L133.836 328.301 " stroke="black" stroke-width="1" fill="none" />

<path d="M130.495 343.563 L130.495 343.563 " stroke="black" stroke-width="1" fill="none" />

<path d="M122.868 317.284 L122.868 317.284 " stroke="black" stroke-width="1" fill="none" />

<path d="M122.841 317.197 L122.841 317.197 " stroke="black" stroke-width="1" fill="none" />

<path d="M122.83 317.099 L122.83 317.099 " stroke="black" stroke-width="1" fill="none" />

<circle cx="115.271" cy="153.6" r="1.13386" stroke="black" stroke-width="1" fill="none" />


<circle cx="115.271" cy="307.2" r="1.13386" stroke="black" stroke-width="1" fill="none" />


<path d="M107.708 320.776 L107.708 320.776 " stroke="black" stroke-width="1" fill="none" />

<circle cx="105.671" cy="86.3999" r="0.755903" stroke="black" stroke-width="1" fill="none" />


<path d="M104.106 314.759 L104.106 314.759 " stroke="black" stroke-width="1" fill="none" />

<path d="M104.012 314.77 L104.012 314.77 " stroke="black" stroke-width="1" fill="none" />

<path d="M103.921 314.797 L103.921 314.797 " stroke="black" stroke-width="1" fill="none" />

<path d="M103.842 314.842 L103.842 314.842 " stroke="black" stroke-width="1" fill="none" />

<path d="M103.77 314.903 L103.77 314.903 " stroke="black" stroke-width="1" fill="none" />

<path d="M103.709 314.974 L103.709 314.974 " stroke="black" stroke-width="1" fill="none" />

<path d="M103.668 320.746 L103.668 320.746 " stroke="black" stroke-width="1" fill="none" />

<path d="M103.664 315.058 L103.664 315.058 " stroke="black" stroke-width="1" fill="none" />

<path d="M103.638 315.148 L103.638 315.148 " stroke="black" stroke-width="1" fill="none" />

<path d="M103.63 320.561 L103.63 320.561 " stroke="black" stroke-width="1" fill="none" />

<circle cx="96.071" cy="326.4" r="1.13386" stroke="black" stroke-width="1" fill="none" />


<path d="M25.0915 230.586 L25.0915 234.18 L73.0915 234.18 L73.0915 320.731 L71.2018 320.731 L71.2018 332.069 L82.5403 332.069 L82.5403 320.731 L80.6506 320.731 L80.6695 230.4 L80.5977 229.659 L80.027 228.29 L79.5583 227.715 L78.3262 226.891 L76.8711 226.602 L25.0915 226.62 L25.0915 230.586 Z " stroke="black" stroke-width="1" fill="none" />

<circle cx="76.871" cy="326.4" r="1.13386" stroke="black" stroke-width="1" fill="none" />


<path d="M69.312 238.435 L69.312 238.435 " stroke="black" stroke-width="1" fill="none" />

<path d="M69.3007 238.341 L69.3007 238.341 " stroke="black" stroke-width="1" fill="none" />

<path d="M69.2742 238.25 L69.2742 238.25 " stroke="black" stroke-width="1" fill="none" />

<path d="M69.2288 238.171 L69.2288 238.171 " stroke="black" stroke-width="1" fill="none" />

<path d="M69.1684 238.099 L69.1684 238.099 " stroke="black" stroke-width="1" fill="none" />

<path d="M69.0966 238.038 L69.0966 238.038 " stroke="black" stroke-width="1" fill="none" />

<path d="M69.0134 237.993 L69.0134 237.993 " stroke="black" stroke-width="1" fill="none" />

<path d="M68.9227 237.967 L68.9227 237.967 " stroke="black" stroke-width="1" fill="none" />

<path d="M49.0311 312.869 L53.7403 312.869 L53.7403 308.16 L55.3429 308.16 L55.6603 308.477 L55.6339 313.247 L55.3429 313.943 L54.8137 314.472 L53.7177 314.801 L49.3485 314.789 L49.0311 314.472 L49.0311 312.869 Z " stroke="black" stroke-width="1" fill="none" />

<path d="M53.7403 301.531 L49.0311 301.531 L49.0311 299.928 L49.3485 299.611 L53.7177 299.599 L54.4774 299.747 L55.1048 300.166 L55.5243 300.794 L55.6717 301.553 L55.6603 305.923 L55.3429 306.24 L53.7403 306.24 L53.7403 301.531 Z " stroke="black" stroke-width="1" fill="none" />

<circle cx="48.071" cy="153.6" r="1.13386" stroke="black" stroke-width="1" fill="none" />


<circle cx="48.071" cy="307.2" r="1.13386" stroke="black" stroke-width="1" fill="none" />


<path d="M40.7992 152.64 L42.4018 152.64 L42.4018 147.931 L47.1111 147.931 L47.1111 146.33 L46.7936 146.01 L42.4244 145.999 L41.6648 146.148 L41.0374 146.567 L40.6178 147.193 L40.4704 147.954 L40.4818 152.321 L40.7992 152.64 Z " stroke="black" stroke-width="1" fill="none" />

<path d="M42.4018 303.42 L40.4742 303.42 L40.5082 301.153 L40.7992 300.457 L41.3284 299.928 L42.4244 299.599 L46.7936 299.611 L47.1111 299.928 L47.1111 301.531 L42.4018 301.531 L42.4018 303.42 Z " stroke="black" stroke-width="1" fill="none" />

<path d="M40.4742 310.98 L42.4018 310.98 L42.4018 312.869 L47.1111 312.869 L47.1111 314.472 L46.7936 314.789 L42.4244 314.801 L41.6648 314.653 L41.0374 314.234 L40.6178 313.606 L40.4704 312.847 L40.4742 310.98 Z " stroke="black" stroke-width="1" fill="none" />

<path d="M40.7992 154.56 L42.4018 154.56 L42.4018 159.269 L44.2915 159.269 L44.2915 161.196 L42.4244 161.201 L41.6648 161.052 L41.0374 160.633 L40.6178 160.007 L40.4704 159.246 L40.4818 154.879 L40.7992 154.56 Z " stroke="black" stroke-width="1" fill="none" />

<circle cx="28.871" cy="230.4" r="1.13386" stroke="black" stroke-width="1" fill="none" />


<path d="M23.0506 230.772 L23.0506 230.772 " stroke="black" stroke-width="1" fill="none" />

<circle cx="19.271" cy="230.4" r="1.13386" stroke="black" stroke-width="1" fill="none" />


<path d="M13.6169 231.303 L13.9003 232.388 L14.3274 233.266 L14.8566 233.457 L15.4915 232.822 L15.4915 227.978 L14.8566 227.343 L14.3161 227.538 L13.7 229.07 L13.5488 230.182 L13.6169 231.303 Z " stroke="black" stroke-width="1" fill="none" />

<path d="M0.547273 0 L0.547273 0 " stroke="black" stroke-width="1" fill="none" />

<path d="M0.460344 345.592 L0.460344 345.592 " stroke="black" stroke-width="1" fill="none" />

<path d="M0.369635 345.566 L0.369635 345.566 " stroke="black" stroke-width="1" fill="none" />

<path d="M0.286486 345.521 L0.286486 345.521 " stroke="black" stroke-width="1" fill="none" />

<path d="M0.214675 345.46 L0.214675 345.46 " stroke="black" stroke-width="1" fill="none" />

<path d="M0.154202 345.388 L0.154202 345.388 " stroke="black" stroke-width="1" fill="none" />

<path d="M0.108848 345.309 L0.108848 345.309 " stroke="black" stroke-width="1" fill="none" />

<path d="M0.0823912 345.218 L0.0823912 345.218 " stroke="black" stroke-width="1" fill="none" />

<path d="M0.0710526 345.124 L0.0710526 345.124 " stroke="black" stroke-width="1" fill="none" />

<path d="M0.282706 0.0820157 L0.282706 0.0831496 " stroke="black" stroke-width="1" fill="none" />

<path d="M0.105068 0.298583 L0.105068 0.300094 " stroke="black" stroke-width="1" fill="none" />

<path d="M0.0786117 0.388535 L0.0786117 0.390047 " stroke="black" stroke-width="1" fill="none" />

<path d="M0.0710526 345.12 L0.0710526 345.124 " stroke="black" stroke-width="1" fill="none" />

</svg>
